<?xml version="1.0" encoding="utf-8"?>
<!-- Generator: Adobe Illustrator 27.0.1, SVG Export Plug-In . SVG Version: 6.00 Build 0)  -->
<svg version="1.1" id="Layer_1" xmlns="http://www.w3.org/2000/svg" xmlns:xlink="http://www.w3.org/1999/xlink" x="0px" y="0px"
	 viewBox="0 0 1280 1024" style="enable-background:new 0 0 1280 1024;" xml:space="preserve">
<style type="text/css">
	.st0{fill:#546F8A;}
</style>
<g id="Layer_2_00000014598816936090453350000015657627418591394217_">
	<g id="Layer_1-2">
		<path class="st0" d="M1014.1,66.4c0.2-7.4-5.2-14.5-12.5-18.3c3.1-0.9,5.9-2.8,7.9-5.4c1.1-1.5,2.5-2.7,0.3-4.1
			c-0.6-0.4-1.3-0.7-2.1-0.8c-1.2-0.2-1.8,0-2.1,1.1c-1.3,3.3-3.8,6-7,7.6l-0.1-0.1c1.2-2.2,1.9-4.7,2.1-7.2
			c-0.4-1.2-2.4-1.8-3.7-1.7c-0.8,0.1-1.7,0.4-2.4,0.8c-1.6,0.9-0.4,3.1-0.9,4.6c-0.3,1.9-1.1,3.7-2.2,5.3c-1.4,1-3,2.1-3.5,1
			c0.9-2.4,0.2-5.1-1-7.2c-0.9-0.6-2.4,0.1-2.9,1c-1.2,1.9,3.5,4.2,0.4,7.9c-5.4-4.1-12.4-5.1-19.1-4.8l28.4-16.4
			c9.8,6.4,22.2-5.4,16.1-15.6c-3.2-5.5-10.3-7.4-15.8-4.2c-3.7,2.1-5.9,6.1-5.8,10.4l-28.3,16.3c3.6-5.6,6.2-12.2,5.4-18.8
			c4.8-0.8,4.4,4.5,6.6,4.3c1-0.1,2.4-0.9,2.3-2.1c-1.4-2.1-3.4-4.1-6.1-4.5c-0.4-3.4,6.5-2.7,8.6-1.7c1.6,0.2,2.9,2.4,4.5,1.5
			c0.7-0.4,1.4-1,1.9-1.7c0.7-1,1.2-3,0.4-4c-2.3-1.1-4.8-1.7-7.4-1.7c3-2.1,6.7-2.9,10.3-2.4c1.1,0.4,1.6-0.1,2-1.2
			c0.3-0.7,0.4-1.4,0.4-2.2c-0.2-2.6-1.8-2-3.7-1.8c-3.3,0.5-6.5,2-8.8,4.4c0.4-8.3-3.1-16.7-9.6-20.3l0,0l-0.1-0.1l0,0
			c-6.3-3.8-15.1-2.8-22.1,1.6c0.8-3.2,0.5-6.5-0.7-9.5c-0.7-1.7-1.1-3.5-3.4-2.3c-0.7,0.3-1.3,0.8-1.7,1.4c-0.7,0.9-0.9,1.6,0,2.4
			c2.2,2.8,3.3,6.3,3.1,9.9l-0.1,0.1c-1.3-2.1-3.1-4-5.2-5.4c-1.3-0.2-2.7,1.2-3.3,2.3c-0.3,0.8-0.5,1.6-0.5,2.5
			c0,1.8,2.5,1.9,3.5,3.1c2,1.3,5.7,7,2.8,8.2c-1.6-2-4.4-2.8-6.9-2.9c-1,0.5-1.1,2.1-0.6,3c1,2,5.4-1,7.1,3.6
			c-6.2,2.6-10.7,8.2-13.7,14.1v-32.8c10.5-5.2,6.3-22.1-5.5-21.8c-11.8-0.2-15.9,16.5-5.5,21.8v32.7c-3-5.9-7.4-11.4-13.6-14.1
			c1.7-4.5,6-1.5,7.1-3.6c0.5-0.9,0.4-2.5-0.6-3c-2.6,0.1-5.4,0.9-7,3.1c-2.6-1.5,0.8-7,2.9-8.4c1-1.3,3.5-1.3,3.5-3.1
			c0-0.9-0.2-1.7-0.5-2.5c-0.5-1.1-2-2.6-3.3-2.3c-2.1,1.4-3.9,3.3-5.2,5.5c-0.3-3.6,0.8-7.2,3.1-10.1c0.9-0.8,0.7-1.5,0-2.4
			c-0.4-0.6-1-1.1-1.7-1.4c-2.3-1.1-2.7,0.6-3.4,2.3c-1.3,3.1-1.5,6.6-0.6,9.9c-7-4.5-16-5.7-22.4-1.8l0,0l-0.1,0.1l0,0
			c-6.5,3.5-9.9,11.7-9.6,19.9c-2.4-2.3-5.4-3.7-8.6-4.2c-1.9-0.2-3.5-0.8-3.7,1.8c-0.1,0.7,0,1.5,0.4,2.2c0.4,1.1,0.9,1.6,2,1.2
			c3.5-0.5,7.2,0.3,10.1,2.3v0.2c-2.5,0.1-5,0.7-7.2,1.8c-0.9,1-0.3,3,0.4,4c0.5,0.7,1.2,1.2,1.9,1.7c1.5,0.9,2.9-1.3,4.5-1.5
			c2.2-1.2,8.7-1.3,8.7,1.7c-2.7,0.3-4.8,2.4-6.1,4.5c-0.1,1.1,1.3,2,2.3,2c2.3,0.1,1.9-5.2,6.6-4.3c-0.8,6.7,1.8,13.3,5.4,18.9
			l-28.4-16.4c0.6-11.8-15.9-16.5-21.6-6.2c-6.1,10.1,6.2,22,16.1,15.6l28.3,16.3c-6.6-0.3-13.6,0.7-19,4.8c-3.1-3.7,1.7-6,0.4-7.9
			c-0.6-0.9-2-1.6-2.9-1c-1.2,2.3-2,5.3-0.7,7.8c-2.8,1.2-5.8-4.3-5.9-6.9c-0.6-1.5,0.6-3.7-0.9-4.6c-0.7-0.4-1.6-0.7-2.4-0.8
			c-1.2-0.1-3.2,0.4-3.6,1.7c0.2,2.6,0.9,5,2.2,7.3c-3.3-1.6-5.8-4.3-7.2-7.7c-0.2-1.1-0.9-1.3-2.1-1.1c-0.7,0.1-1.5,0.3-2.1,0.8
			c-2.1,1.4-0.8,2.6,0.3,4.1c2.1,2.7,5,4.6,8.2,5.5c-7.4,3.8-13,11-12.8,18.5l0,0v0.1l0,0c-0.2,7.4,5.2,14.4,12.5,18.3
			c-3.1,0.9-5.9,2.8-7.9,5.4c-1.2,1.5-2.5,2.7-0.3,4.1c0.6,0.4,1.3,0.7,2.1,0.8c1.1,0.2,1.8,0,2.1-1.1c1.3-3.3,3.8-6,7-7.6h0.1
			c-0.8,2.2-3.8,7.3-0.6,8.5c0.9,0.4,1.8,0.4,2.8,0.2c0.7-0.1,1.3-0.3,1.8-0.7c1.6-0.9,0.3-3.1,0.9-4.6c0.1-2.7,3.2-7.6,5.8-6.8
			c-1.1,2.5-0.4,5.4,0.8,7.6c0.9,0.6,2.4-0.1,2.9-1c1.2-1.9-3.5-4.2-0.4-7.9c5.4,4,12.5,5.1,19.1,4.8l-28.3,16.4
			c-9.8-6.4-22.2,5.4-16.1,15.6c5.8,10.4,22.2,5.5,21.6-6.1L879,96.3c-3.6,5.6-6.2,12.2-5.4,18.8c-4.8,0.8-4.4-4.4-6.6-4.3
			c-1,0-2.4,0.9-2.3,2c1.4,2.2,3.7,4.4,6.5,4.5c0,3.2-6.8,2.8-9,1.7c-1.6-0.2-2.9-2.4-4.5-1.5c-0.7,0.4-1.4,1-1.9,1.7
			c-0.7,1-1.2,3-0.4,4c2.3,1.1,4.8,1.7,7.4,1.8c-3,2-6.7,2.9-10.3,2.4c-1.1-0.4-1.6,0.1-2,1.2c-0.3,0.7-0.4,1.4-0.4,2.2
			c0.2,2.6,1.8,2,3.7,1.8c3.3-0.5,6.5-2,8.8-4.4c-0.4,8.3,3.1,16.7,9.6,20.3l0,0l0.1,0.1l0,0c6.3,3.8,15.1,2.8,22.1-1.6
			c-0.8,3.2-0.5,6.5,0.7,9.6c0.7,1.7,1.1,3.5,3.4,2.3c0.7-0.3,1.3-0.8,1.7-1.4c0.7-0.9,0.9-1.6,0-2.4c-2.2-2.8-3.3-6.3-3.1-9.8
			l0.1-0.1c1.5,1.8,4.4,6.9,7,4.8c0.8-0.6,1.3-1.4,1.6-2.3c0.2-0.6,0.3-1.3,0.3-1.9c0-1.8-2.5-1.9-3.5-3.1c-2.3-1.4-4.7-6.3-2.8-8.3
			c1.6,2.1,4.4,2.9,6.9,3c1-0.5,1.1-2.1,0.6-3c-1-2-5.4,1-7.1-3.6c6.2-2.6,10.6-8.2,13.7-14.2v32.7c-3.8,2-6.1,5.9-6.1,10.2l0,0
			c-0.2,8.7,10,14.5,17.3,10c7.7-4,7.5-16.5-0.3-20.2v-32.6c3,5.9,7.5,11.4,13.6,14.1c-1.7,4.5-6,1.5-7.1,3.6
			c-0.5,0.9-0.4,2.6,0.6,3c2.6-0.1,5.6-1,7.1-3.3c3.2,1.4-1.2,7.2-3,8.6c-1,1.3-3.5,1.3-3.5,3.1c0,0.9,0.2,1.7,0.5,2.5
			c0.5,1.1,2,2.6,3.3,2.3c2.1-1.4,3.9-3.3,5.2-5.5c0.3,3.6-0.8,7.2-3.1,10.1c-0.9,0.8-0.7,1.4,0,2.4c0.4,0.6,1,1.1,1.7,1.4
			c2.3,1.1,2.7-0.6,3.4-2.3c1.3-3.1,1.5-6.6,0.6-9.9c7,4.5,16,5.7,22.4,1.8l0,0l0.1-0.1l0,0c6.5-3.5,9.9-11.7,9.6-19.9
			c2.4,2.3,5.4,3.7,8.6,4.2c1.9,0.2,3.5,0.8,3.7-1.8c0.1-0.7,0-1.5-0.4-2.2c-0.4-1.1-0.9-1.6-2-1.2c-3.5,0.5-7.1-0.3-10.1-2.2V125
			c2.3-0.3,8.2-0.4,7.7-3.7c-0.1-0.9-0.5-1.8-1.2-2.5c-0.4-0.5-0.9-0.9-1.5-1.2c-1.6-0.9-2.9,1.2-4.5,1.5c-1.6,0.6-3.3,0.9-5,0.8
			c-1.6-0.6-3.7-1.6-3.4-2.5c2.6-0.4,4.6-2.4,5.9-4.5c0.1-1.1-1.3-2-2.3-2c-2.3-0.1-1.9,5.2-6.6,4.3c0.8-6.7-1.8-13.3-5.4-18.9
			l28.4,16.4c-0.6,11.7,15.9,16.5,21.6,6.1c6.1-10.2-6.3-22-16.1-15.6l-28.3-16.3c6.6,0.3,13.6-0.7,19-4.8c3.1,3.7-1.7,6-0.4,7.9
			c0.6,0.9,2,1.6,2.9,1c1.2-2.3,1.9-5.2,0.8-7.7c2.9-2,5.5,4.4,5.9,6.8c0.6,1.5-0.6,3.7,0.9,4.6c0.7,0.4,1.6,0.7,2.4,0.8
			c1.3,0.1,3.2-0.4,3.6-1.7c-0.2-2.6-0.9-5-2.2-7.3c3.3,1.6,5.9,4.3,7.2,7.7c0.2,1.1,0.9,1.3,2.1,1.1c0.7-0.1,1.5-0.3,2.1-0.8
			c2.1-1.4,0.8-2.6-0.3-4.1c-2.1-2.7-5-4.6-8.2-5.5c7.4-3.8,13-11,12.8-18.5l0,0c0,0,0-0.1,0-0.1L1014.1,66.4z M997.8,16.4
			c4.8-2.8,9.2,4.7,4.3,7.5C997.2,26.5,992.9,19.1,997.8,16.4L997.8,16.4z M842.9,22.3c-2.7,4.9-10.3,0.5-7.4-4.3
			C838.2,13.1,845.8,17.5,842.9,22.3z M841.4,116.7c-4.8,2.9-9.2-4.7-4.3-7.4S846.2,114,841.4,116.7z M996.3,110.8
			c2.7-4.9,10.3-0.5,7.4,4.3C1000.9,119.9,993.4,115.6,996.3,110.8z M980.1,54.8c5.1,3.2,7,6.7,7.7,8.9H977c-4-12.1-24.8-5.8-38.1-2
			l12.1-7C957.5,52.7,971.5,49.3,980.1,54.8L980.1,54.8z M888.6,115l-5.4,9.3c-1.6-1.7-3.9-5.1-4.1-11.3c-0.4-10,9.3-20.4,14.2-25
			l13-7.5C896.7,90,880,105.5,888.6,115z M892.7,103.3c3.3-6.4,11.4-14,16.7-19l0.2-0.2l-0.1,0.6c-1.7,7.5-4.1,18-7.9,23.8
			c-0.5-3.6-3.8-6-7.4-5.5C893.7,103,893.2,103.1,892.7,103.3L892.7,103.3z M901,24.6c3.9,6,6.4,16.8,8.1,24l0.1,0.3l-0.4-0.4
			c-5.6-5.2-13.5-12.5-16.7-18.8c3.3,1.3,7.1-0.3,8.5-3.6C900.7,25.7,900.9,25.2,901,24.6L901,24.6z M905.7,52.2l-12.1-7
			c-6.3-6-14.5-15.2-14.4-25.2c0.2-6.4,2.5-9.8,4.2-11.5l5.4,9.3C879.6,27.4,895.7,42.5,905.7,52.2z M876.6,66.7
			c0-2-0.9-3.9-2.5-5.1c7.2-0.4,17.8,2.8,24.8,4.9l0.3,0.1l-0.5,0.2c-7.3,2.3-17.6,5.5-24.6,5C875.7,70.6,876.6,68.7,876.6,66.7z
			 M912.2,70.8c-5.4-9.8,9-18,14.7-8.5C932.3,72.1,918,80.4,912.2,70.8z M962.5,66c0,2,0.9,3.9,2.5,5.2c-7.2,0.4-17.8-2.8-24.8-5
			l-0.3-0.1l0.5-0.2c7.3-2.3,17.6-5.5,24.6-5C963.5,62.1,962.5,64,962.5,66z M946.4,29.4c-3.3,6.4-11.4,14-16.7,19l-0.2,0.2
			c0-0.2,0.1-0.4,0.1-0.5c1.7-7.5,4-18,7.9-23.8c0.5,3.6,3.8,6,7.4,5.5C945.4,29.7,945.9,29.6,946.4,29.4L946.4,29.4z M938.2,108.1
			c-3.9-6.1-6.5-16.9-8.1-24l-0.1-0.3l0.4,0.4c5.6,5.2,13.5,12.5,16.6,18.8c-3.3-1.3-7.1,0.3-8.5,3.6
			C938.4,107,938.2,107.5,938.2,108.1L938.2,108.1z M932.8,52.6c9.8-9.6,26.6-25.3,17.6-34.7l5.4-9.3c10.9,10.6-1.2,29.6-9.9,36.5
			L932.8,52.6z M933.5,80.9l12.2,7c6.3,6,14.5,15.2,14.4,25.2c-0.2,6.1-2.3,9.5-4,11.2l-5.4-9.3C959.4,105.4,943.4,90.5,933.5,80.9z
			 M965-7.5l1.5-2.6c4.4,3.7,6.8,10.4,5.3,18.8c-2.8,0.8-5.3,2.3-7.3,4.4c-0.8-2.7-2.1-5.3-3.9-7.5C966.7,4.7,968.9-3.3,965-7.5z
			 M943.5-7.9c6.5-5.4,13.3-6.6,18.6-4.7l-1.6,2.7c-5.5-1-11.1,4.8-8.9,10.4c-2.8-0.5-5.6-0.4-8.3,0.3c0.4-1.3,0.6-2.6,0.6-3.9
			C944.1-4.7,944-6.3,943.5-7.9L943.5-7.9z M925,33.3c2.2-12.4,11.9-30.5,26.3-27.2l-5.3,9.3c-12.7-2.8-17.6,18.5-21,31.9V33.3z
			 M923.9-26.3c0.1,5.6-8.7,5.6-8.6,0C915.2-31.9,923.9-31.9,923.9-26.3z M911.6,24.6c3.2,6.3,2.5,17,2.5,23.5
			c-3.4-13.2-8.5-35.3-21-32.7l-5.4-9.3C897.9,3.3,908.7,14.4,911.6,24.6z M874.6,13.1c-2-2.2-4.6-3.7-7.5-4.5
			c-0.6-4.5-0.8-13.6,5.4-18.8l1.6,2.8c-3.9,4.2-1.8,12.2,4.4,13.1C876.6,7.9,875.3,10.4,874.6,13.1L874.6,13.1z M878.5-9.9
			l-1.6-2.9c7.6-2.5,15.3,2.4,18.7,5c-0.7,2.8-0.6,5.8,0.2,8.5c-2.8-0.7-5.6-0.8-8.4-0.3C889.6-5.1,884-10.9,878.5-9.9z M859.1,54.7
			c8.6-5,20.4-2.6,28.8-0.2l13,7.6c-13.1-3.7-34.7-10.3-38.8,1.7h-10.8C852,61.5,853.9,58,859.1,54.7z M843.1,83
			c-8.1-3-12.6-8.5-13.5-14.2h3.3c1.6,4.9,7.3,8.6,13.4,2.9c1,2.6,2.5,5,4.4,7C847.9,79.4,845.2,80.9,843.1,83L843.1,83z
			 M846.3,61.4c-1.5-1.7-3.7-2.7-6-2.7c-4.3,0.5-6.7,2.6-7.5,5.1h-3c1.2-5.6,5.7-10.8,13.5-13.6c2.1,2,4.7,3.4,7.5,4.1
			C848.8,56.3,847.3,58.8,846.3,61.4z M859.1,78.3c-5.5-3.5-7.3-7.3-7.8-9.5H862c3.6,12.9,24.8,6.4,38.2,2.6l-12.1,7
			C881.7,80.4,867.7,83.7,859.1,78.3z M874,140.3l-1.5,2.7c-4.3-3.8-6.6-10.3-5.1-18.6c2.8-0.8,5.3-2.3,7.3-4.4
			c0.7,2.7,2.1,5.3,3.9,7.4C872.5,128.4,870.4,136.1,874,140.3z M895.7,141c-6.6,5.5-13.5,6.6-18.9,4.6l1.6-2.7
			c5.6,1.3,11.4-4.6,9.2-10.4c2.8,0.5,5.6,0.4,8.3-0.3c-0.4,1.3-0.6,2.6-0.7,3.9C895,137.8,895.2,139.4,895.7,141L895.7,141z
			 M914.2,99.8c-2.2,12.5-12,30.7-26.6,27.1l5.4-9.3c13.1,3,17.8-18.5,21.2-31.8V99.8z M915.3,159.4c-0.1-5.6,8.7-5.6,8.6,0
			C924,164.9,915.2,164.9,915.3,159.4L915.3,159.4z M927.6,108.5c-3.2-6.3-2.5-17-2.5-23.5c3.4,13.3,8.6,35.7,21.3,32.6l5.4,9.3
			C941.5,130,930.5,118.8,927.6,108.5L927.6,108.5z M964.6,120c2,2.2,4.6,3.7,7.5,4.5c0.6,4.4,0.8,13.4-5.1,18.6l-1.6-2.9
			c3.6-4.2,1.4-12-4.6-12.9C962.6,125.2,963.8,122.7,964.6,120L964.6,120z M961,142.9l1.6,2.8c-7.7,2.8-15.5-2.2-19-4.9
			c0.7-2.8,0.6-5.8-0.2-8.5c2.7,0.7,5.6,0.8,8.4,0.3C949.6,138.3,955.4,144.1,961,142.9z M980.1,78.3c-8.6,5.1-20.4,2.6-28.8,0.2
			l-13-7.5c13.2,3.6,35,10.7,38.9-2.3H988C987.4,70.9,985.7,74.8,980.1,78.3L980.1,78.3z M996.1,50c7.9,2.9,12.3,8.1,13.4,13.6h-3.4
			c-1.8-4.6-7.4-7.8-13.2-2.3c-1-2.6-2.5-5-4.4-7C991.3,53.6,993.9,52.2,996.1,50L996.1,50z M995.9,82.9c-2.1-2-4.7-3.4-7.5-4.1
			c2-2,3.5-4.5,4.5-7.1c1.5,1.7,3.7,2.7,5.9,2.7c4.7-0.5,7-2.9,7.7-5.7h3C1008.5,74.5,1003.9,79.9,995.9,82.9L995.9,82.9z"/>
	</g>
</g>
<g id="Layer_2_00000052793295102017696200000016783719935968446902_">
	<g id="Layer_1-2_00000076591477922657553380000014348203105905371068_">
		<path class="st0" d="M338.6,501.5c0.1-4.6-3.2-9.1-7.8-11.5c2-0.6,3.7-1.8,5-3.4c0.7-0.9,1.5-1.7,0.2-2.6
			c-0.4-0.3-0.8-0.4-1.3-0.5c-0.7-0.1-1.2,0-1.3,0.7c-0.8,2.1-2.4,3.8-4.4,4.8l-0.1,0c0.7-1.4,1.2-2.9,1.3-4.5
			c-0.3-0.8-1.5-1.1-2.3-1.1c-0.5,0.1-1,0.2-1.5,0.5c-1,0.6-0.2,2-0.6,2.9c-0.2,1.2-0.7,2.3-1.4,3.3c-0.9,0.6-1.9,1.3-2.2,0.6
			c0.5-1.5,0.1-3.2-0.6-4.5c-0.6-0.4-1.5,0.1-1.8,0.6c-0.8,1.2,2.2,2.7,0.3,5c-3.4-2.5-7.8-3.2-12-3l17.8-10.3
			c6.1,4,13.9-3.4,10.1-9.8c-2-3.5-6.4-4.7-9.9-2.6c-2.3,1.3-3.7,3.8-3.6,6.5l-17.7,10.2c2.3-3.5,3.9-7.6,3.4-11.8
			c3-0.5,2.7,2.8,4.2,2.7c0.6,0,1.5-0.6,1.5-1.3c-0.8-1.3-2.1-2.6-3.8-2.8c-0.2-2.1,4.1-1.7,5.4-1.1c1,0.2,1.8,1.5,2.8,0.9
			c0.5-0.3,0.9-0.6,1.2-1.1c0.5-0.6,0.8-1.9,0.2-2.5c-1.5-0.7-3-1.1-4.6-1.1c1.9-1.3,4.2-1.8,6.5-1.5c0.7,0.2,1-0.1,1.3-0.8
			c0.2-0.4,0.3-0.9,0.2-1.4c-0.1-1.6-1.1-1.3-2.3-1.1c-2.1,0.3-4,1.3-5.5,2.8c0.2-5.2-1.9-10.5-6-12.7l0,0l-0.1,0l0,0
			c-3.9-2.4-9.5-1.7-13.9,1c0.5-2,0.3-4.1-0.4-6c-0.5-1.1-0.7-2.2-2.1-1.5c-0.4,0.2-0.8,0.5-1.1,0.9c-0.5,0.6-0.6,1,0,1.5
			c1.4,1.8,2.1,4,1.9,6.2l-0.1,0c-0.8-1.3-1.9-2.5-3.2-3.4c-0.8-0.2-1.7,0.7-2.1,1.5c-0.2,0.5-0.3,1-0.3,1.6c0,1.1,1.6,1.2,2.2,2
			c1.3,0.8,3.6,4.4,1.7,5.1c-1-1.3-2.7-1.8-4.3-1.8c-0.6,0.3-0.7,1.3-0.4,1.9c0.6,1.3,3.4-0.6,4.4,2.3c-3.9,1.6-6.7,5.1-8.6,8.9
			v-20.5c6.6-3.3,3.9-13.9-3.4-13.6c-7.4-0.1-10,10.3-3.4,13.6v20.5c-1.9-3.7-4.7-7.2-8.5-8.8c1-2.9,3.8-1,4.4-2.3
			c0.3-0.6,0.3-1.6-0.4-1.9c-1.6,0.1-3.4,0.6-4.4,1.9c-1.7-0.9,0.5-4.4,1.8-5.3c0.6-0.8,2.2-0.8,2.2-2c0-0.5-0.1-1.1-0.3-1.6
			c-0.3-0.7-1.3-1.6-2.1-1.5c-1.3,0.9-2.4,2.1-3.3,3.4c-0.2-2.3,0.5-4.5,1.9-6.3c0.5-0.5,0.4-0.9,0-1.5c-0.3-0.4-0.6-0.7-1.1-0.9
			c-1.5-0.7-1.7,0.4-2.1,1.5c-0.8,2-0.9,4.1-0.4,6.2c-4.4-2.8-10-3.6-14-1.1l0,0l-0.1,0l0,0c-4.1,2.2-6.2,7.3-6,12.5
			c-1.5-1.4-3.4-2.3-5.4-2.6c-1.2-0.2-2.2-0.5-2.3,1.1c0,0.5,0,0.9,0.2,1.4c0.3,0.7,0.6,1,1.3,0.8c2.2-0.3,4.5,0.2,6.4,1.4v0.1
			c-1.6,0-3.1,0.4-4.5,1.1c-0.5,0.6-0.2,1.9,0.2,2.5c0.3,0.4,0.7,0.8,1.2,1.1c1,0.6,1.8-0.8,2.8-0.9c1.4-0.7,5.5-0.8,5.5,1.1
			c-1.7,0.2-3,1.5-3.9,2.8c-0.1,0.7,0.8,1.3,1.5,1.3c1.4,0.1,1.2-3.2,4.2-2.7c-0.5,4.2,1.1,8.4,3.4,11.9l-17.8-10.3
			c0.4-7.4-10-10.3-13.5-3.9c-3.8,6.3,3.9,13.8,10.1,9.8l17.7,10.2c-4.1-0.2-8.5,0.5-11.9,3c-1.9-2.3,1.1-3.8,0.3-5
			c-0.4-0.5-1.3-1-1.8-0.6c-0.8,1.5-1.3,3.3-0.5,4.9c-1.7,0.7-3.6-2.7-3.7-4.3c-0.4-0.9,0.4-2.3-0.6-2.9c-0.5-0.3-1-0.4-1.5-0.5
			c-0.8-0.1-2,0.3-2.3,1.1c0.1,1.6,0.6,3.2,1.3,4.6c-2.1-1-3.7-2.7-4.5-4.8c-0.1-0.7-0.6-0.8-1.3-0.7c-0.5,0-0.9,0.2-1.3,0.5
			c-1.3,0.9-0.5,1.6,0.2,2.6c1.3,1.7,3.1,2.9,5.2,3.5c-4.6,2.4-8.1,6.9-8,11.6l0,0v0.1l0,0c-0.1,4.6,3.2,9,7.8,11.5
			c-2,0.6-3.7,1.8-5,3.4c-0.7,0.9-1.5,1.7-0.2,2.6c0.4,0.3,0.8,0.4,1.3,0.5c0.7,0.1,1.1,0,1.3-0.7c0.8-2.1,2.4-3.8,4.4-4.8h0.1
			c-0.5,1.4-2.4,4.6-0.4,5.3c0.5,0.2,1.2,0.3,1.7,0.1c0.4-0.1,0.8-0.2,1.2-0.4c1-0.6,0.2-2,0.6-2.9c0.1-1.7,2-4.8,3.7-4.2
			c-0.7,1.5-0.3,3.4,0.5,4.8c0.6,0.4,1.5-0.1,1.8-0.6c0.8-1.2-2.2-2.7-0.3-5c3.4,2.5,7.8,3.2,12,3l-17.8,10.3
			c-6.1-4-13.9,3.4-10.1,9.8c3.6,6.5,13.9,3.5,13.5-3.9l17.7-10.2c-2.3,3.5-3.9,7.6-3.4,11.8c-3,0.5-2.7-2.8-4.2-2.7
			c-0.6,0-1.5,0.6-1.5,1.3c0.9,1.4,2.3,2.8,4.1,2.8c0,2-4.2,1.7-5.6,1c-1-0.2-1.8-1.5-2.8-0.9c-0.5,0.3-0.9,0.6-1.2,1.1
			c-0.5,0.6-0.8,1.9-0.2,2.5c1.4,0.7,3,1.1,4.6,1.1c-1.9,1.3-4.2,1.8-6.5,1.5c-0.7-0.2-1,0.1-1.3,0.8c-0.2,0.4-0.3,0.9-0.2,1.4
			c0.1,1.6,1.1,1.3,2.3,1.1c2.1-0.3,4-1.3,5.5-2.8c-0.3,5.2,1.9,10.5,6,12.7l0,0l0.1,0l0,0c3.9,2.4,9.5,1.7,13.9-1
			c-0.5,2-0.3,4.1,0.4,6c0.5,1.1,0.7,2.2,2.1,1.5c0.4-0.2,0.8-0.5,1.1-0.9c0.5-0.6,0.6-1,0-1.5c-1.4-1.7-2-3.9-1.9-6.1l0.1,0
			c0.9,1.1,2.8,4.3,4.4,3c0.5-0.4,0.8-0.9,1-1.5c0.1-0.4,0.2-0.8,0.2-1.2c0-1.1-1.6-1.2-2.2-2c-1.5-0.9-2.9-4-1.8-5.2
			c1,1.3,2.8,1.8,4.3,1.9c0.6-0.3,0.7-1.3,0.4-1.9c-0.6-1.3-3.4,0.6-4.4-2.3c3.9-1.7,6.7-5.2,8.6-8.9v20.5c-2.4,1.3-3.8,3.7-3.8,6.4
			l0,0c-0.1,5.4,6.3,9.1,10.9,6.3c4.8-2.5,4.7-10.3-0.2-12.7v-20.5c1.9,3.7,4.7,7.2,8.5,8.8c-1,2.8-3.8,1-4.4,2.2
			c-0.3,0.6-0.2,1.6,0.4,1.9c1.6-0.1,3.5-0.6,4.5-2.1c2,0.9-0.7,4.5-1.9,5.4c-0.6,0.8-2.2,0.8-2.2,2c0,0.5,0.1,1.1,0.3,1.6
			c0.3,0.7,1.3,1.6,2.1,1.5c1.3-0.9,2.5-2.1,3.3-3.5c0.2,2.3-0.5,4.5-1.9,6.3c-0.5,0.5-0.4,0.9,0,1.5c0.3,0.4,0.6,0.7,1.1,0.9
			c1.5,0.7,1.7-0.4,2.1-1.5c0.8-2,0.9-4.1,0.4-6.2c4.4,2.8,10,3.6,14,1.1l0,0l0.1,0l0,0c4.1-2.2,6.2-7.3,6-12.5
			c1.5,1.4,3.4,2.3,5.4,2.6c1.2,0.2,2.2,0.5,2.3-1.1c0-0.5,0-0.9-0.2-1.4c-0.3-0.7-0.6-1-1.3-0.8c-2.2,0.3-4.5-0.2-6.3-1.4v-0.1
			c1.4-0.2,5.1-0.2,4.8-2.3c-0.1-0.6-0.3-1.1-0.7-1.6c-0.3-0.3-0.6-0.6-0.9-0.8c-1-0.6-1.8,0.8-2.8,0.9c-1,0.4-2.1,0.6-3.2,0.5
			c-1-0.4-2.3-1-2.1-1.6c1.6-0.3,2.9-1.5,3.7-2.8c0.1-0.7-0.8-1.3-1.5-1.3c-1.4-0.1-1.2,3.2-4.2,2.7c0.5-4.2-1.1-8.4-3.4-11.9
			l17.8,10.3c-0.4,7.3,10,10.3,13.5,3.9c3.8-6.4-4-13.8-10.1-9.8l-17.7-10.2c4.1,0.2,8.5-0.5,11.9-3c1.9,2.3-1.1,3.8-0.3,5
			c0.4,0.5,1.3,1,1.8,0.6c0.8-1.4,1.2-3.3,0.5-4.8c1.8-1.3,3.5,2.8,3.7,4.3c0.4,0.9-0.4,2.3,0.6,2.9c0.5,0.3,1,0.4,1.5,0.5
			c0.8,0.1,2-0.3,2.3-1.1c-0.1-1.6-0.6-3.2-1.4-4.6c2.1,1,3.7,2.7,4.5,4.8c0.1,0.7,0.6,0.8,1.3,0.7c0.5,0,0.9-0.2,1.3-0.5
			c1.3-0.9,0.5-1.6-0.2-2.6c-1.3-1.7-3.1-2.9-5.2-3.4c4.6-2.4,8.1-6.9,8-11.6l0,0C338.6,501.6,338.6,501.5,338.6,501.5L338.6,501.5z
			 M328.3,470.1c3-1.8,5.7,3,2.7,4.7C328,476.5,325.3,471.9,328.3,470.1L328.3,470.1z M231.2,473.8c-1.7,3.1-6.5,0.3-4.7-2.7
			C228.3,468.1,233,470.8,231.2,473.8z M230.3,533c-3,1.8-5.7-3-2.7-4.7C230.6,526.6,233.3,531.3,230.3,533z M327.3,529.3
			c1.7-3.1,6.4-0.3,4.7,2.7C330.2,535,325.6,532.3,327.3,529.3z M317.2,494.2c3.2,2,4.4,4.2,4.8,5.6h-6.7
			c-2.5-7.6-15.6-3.6-23.9-1.3l7.6-4.4C303,492.9,311.8,490.8,317.2,494.2L317.2,494.2z M259.9,532l-3.4,5.8c-1-1-2.4-3.2-2.6-7.1
			c-0.2-6.3,5.8-12.8,8.9-15.7l8.1-4.7C264.9,516.3,254.5,526,259.9,532z M262.5,524.6c2.1-4,7.1-8.8,10.5-11.9l0.1-0.1l-0.1,0.3
			c-1.1,4.7-2.5,11.3-5,14.9c-0.3-2.2-2.4-3.8-4.6-3.5C263.1,524.4,262.8,524.5,262.5,524.6L262.5,524.6z M267.6,475.3
			c2.5,3.8,4,10.6,5.1,15l0,0.2l-0.3-0.2c-3.5-3.3-8.5-7.8-10.4-11.8c2.1,0.8,4.5-0.2,5.3-2.3C267.5,476,267.6,475.7,267.6,475.3
			L267.6,475.3z M270.6,492.6l-7.6-4.4c-3.9-3.8-9.1-9.5-9-15.8c0.1-4,1.6-6.1,2.6-7.2l3.4,5.8C254.2,477.1,264.3,486.5,270.6,492.6
			z M252.4,501.7c0-1.2-0.6-2.4-1.6-3.2c4.5-0.2,11.2,1.8,15.5,3.1l0.2,0.1l-0.3,0.1c-4.6,1.4-11,3.4-15.4,3.1
			C251.8,504.1,252.3,502.9,252.4,501.7z M274.7,504.2c-3.4-6.1,5.6-11.3,9.2-5.3C287.3,505,278.3,510.2,274.7,504.2z M306.2,501.2
			c0,1.3,0.6,2.5,1.6,3.2c-4.5,0.2-11.2-1.8-15.5-3.1l-0.2-0.1l0.3-0.1c4.6-1.4,11-3.4,15.4-3.1C306.8,498.8,306.2,500,306.2,501.2z
			 M296.1,478.3c-2.1,4-7.1,8.8-10.5,11.9l-0.2,0.1c0-0.1,0.1-0.2,0.1-0.3c1.1-4.7,2.5-11.3,5-14.9c0.3,2.2,2.4,3.8,4.6,3.5
			C295.5,478.5,295.8,478.4,296.1,478.3L296.1,478.3z M290.9,527.6c-2.5-3.8-4-10.6-5.1-15l0-0.2l0.3,0.2c3.5,3.3,8.5,7.8,10.4,11.8
			c-2.1-0.8-4.5,0.2-5.3,2.3C291.1,526.9,291,527.3,290.9,527.6L290.9,527.6z M287.5,492.8c6.1-6,16.7-15.8,11-21.8l3.4-5.8
			c6.8,6.6-0.8,18.5-6.2,22.9L287.5,492.8z M288,510.5l7.6,4.4c3.9,3.8,9.1,9.5,9,15.8c-0.1,3.8-1.5,6-2.5,7l-3.4-5.8
			C304.2,525.9,294.2,516.6,288,510.5z M307.8,455.2l1-1.7c2.8,2.3,4.3,6.5,3.3,11.8c-1.7,0.5-3.3,1.5-4.6,2.8
			c-0.5-1.7-1.3-3.3-2.5-4.7C308.8,462.8,310.2,457.8,307.8,455.2z M294.3,454.9c4.1-3.4,8.3-4.1,11.7-3l-1,1.7
			c-3.4-0.6-7,3-5.6,6.5c-1.7-0.3-3.5-0.2-5.2,0.2c0.2-0.8,0.4-1.6,0.4-2.5C294.7,456.9,294.6,455.9,294.3,454.9L294.3,454.9z
			 M282.7,480.7c1.4-7.8,7.5-19.1,16.5-17l-3.3,5.8c-7.9-1.7-11.1,11.6-13.2,20V480.7z M282,443.4c0.1,3.5-5.4,3.5-5.4,0
			C276.5,439.9,282,439.9,282,443.4z M274.3,475.3c2,3.9,1.6,10.7,1.6,14.7c-2.1-8.3-5.3-22.1-13.2-20.5l-3.4-5.8
			C265.7,461.9,272.5,468.9,274.3,475.3z M251.1,468.1c-1.3-1.4-2.9-2.3-4.7-2.8c-0.4-2.8-0.5-8.6,3.4-11.8l1,1.8
			c-2.5,2.6-1.1,7.7,2.8,8.2C252.4,464.8,251.6,466.4,251.1,468.1L251.1,468.1z M253.5,453.7l-1-1.8c4.7-1.6,9.6,1.5,11.7,3.1
			c-0.4,1.8-0.4,3.6,0.1,5.3c-1.7-0.4-3.5-0.5-5.3-0.2C260.5,456.7,257,453.1,253.5,453.7z M241.4,494.2c5.4-3.1,12.8-1.6,18-0.1
			l8.2,4.8c-8.2-2.3-21.7-6.4-24.3,1.1h-6.8C236.9,498.4,238.1,496.2,241.4,494.2z M231.4,511.9c-5.1-1.9-7.9-5.3-8.4-8.9h2.1
			c1,3.1,4.6,5.4,8.4,1.8c0.6,1.6,1.6,3.1,2.8,4.4C234.3,509.6,232.7,510.6,231.4,511.9L231.4,511.9z M233.4,498.4
			c-0.9-1.1-2.3-1.7-3.8-1.7c-2.7,0.3-4.2,1.6-4.7,3.2H223c0.8-3.5,3.6-6.7,8.5-8.5c1.3,1.3,2.9,2.1,4.7,2.6
			C234.9,495.2,234,496.7,233.4,498.4z M241.4,509c-3.5-2.2-4.6-4.6-4.9-6h6.7c2.2,8.1,15.5,4,24,1.6l-7.6,4.4
			C255.5,510.3,246.8,512.4,241.4,509z M250.7,547.8l-1,1.7c-2.7-2.4-4.1-6.5-3.2-11.7c1.7-0.5,3.3-1.5,4.6-2.8
			c0.5,1.7,1.3,3.3,2.5,4.7C249.8,540.3,248.4,545.2,250.7,547.8z M264.3,548.2c-4.1,3.4-8.5,4.2-11.8,2.9l1-1.7
			c3.5,0.8,7.2-2.9,5.7-6.5c1.7,0.3,3.5,0.2,5.2-0.2c-0.2,0.8-0.4,1.6-0.4,2.5C263.9,546.2,264,547.2,264.3,548.2L264.3,548.2z
			 M275.9,522.4c-1.4,7.8-7.5,19.2-16.6,17l3.4-5.8c8.2,1.9,11.1-11.6,13.3-20V522.4z M276.6,559.7c-0.1-3.5,5.4-3.5,5.4,0
			C282.1,563.2,276.6,563.2,276.6,559.7L276.6,559.7z M284.3,527.8c-2-3.9-1.6-10.7-1.6-14.7c2.1,8.3,5.4,22.4,13.4,20.4l3.4,5.8
			C293,541.3,286.1,534.3,284.3,527.8L284.3,527.8z M307.5,535.1c1.3,1.4,2.9,2.3,4.7,2.8c0.4,2.8,0.5,8.4-3.2,11.7l-1-1.8
			c2.3-2.7,0.9-7.5-2.9-8.1C306.2,538.3,307,536.8,307.5,535.1L307.5,535.1z M305.3,549.4l1,1.8c-4.8,1.7-9.7-1.4-11.9-3.1
			c0.4-1.8,0.4-3.6-0.1-5.3c1.7,0.5,3.5,0.5,5.3,0.2C298.1,546.5,301.8,550.2,305.3,549.4z M317.2,509c-5.4,3.2-12.8,1.6-18,0.1
			l-8.1-4.7c8.3,2.2,21.9,6.7,24.4-1.4h6.8C321.8,504.3,320.7,506.7,317.2,509L317.2,509z M327.2,491.2c4.9,1.8,7.7,5.1,8.4,8.5
			h-2.1c-1.2-2.9-4.6-4.9-8.3-1.5c-0.6-1.6-1.6-3.1-2.8-4.4C324.2,493.5,325.9,492.6,327.2,491.2L327.2,491.2z M327.1,511.8
			c-1.3-1.3-2.9-2.1-4.7-2.6c1.2-1.3,2.2-2.8,2.8-4.5c0.9,1.1,2.3,1.7,3.7,1.7c2.9-0.3,4.4-1.8,4.8-3.5h1.9
			C335,506.5,332.2,510,327.1,511.8L327.1,511.8z"/>
	</g>
</g>
<g id="Layer_2_00000111181048043519461990000008957904033299154068_">
	<g id="Layer_1-2_00000021085908258044458240000008626499733202343304_">
		<path class="st0" d="M161,86.1c0.2-8.8-6.1-17.2-14.8-21.8c3.7-1.1,7-3.3,9.4-6.4c1.4-1.8,2.9-3.2,0.4-4.9
			c-0.7-0.5-1.6-0.8-2.5-0.9c-1.4-0.2-2.2,0-2.5,1.4c-1.6,3.9-4.5,7.2-8.3,9.1l-0.1-0.1c1.4-2.6,2.3-5.5,2.5-8.5
			c-0.5-1.5-2.8-2.1-4.3-2c-1,0.1-2,0.5-2.9,1c-1.9,1-0.4,3.7-1.1,5.5c-0.4,2.3-1.3,4.4-2.6,6.3c-1.7,1.2-3.6,2.5-4.1,1.2
			c1-2.9,0.2-6-1.2-8.6c-1.1-0.7-2.8,0.1-3.5,1.2c-1.5,2.3,4.2,5,0.5,9.4c-6.4-4.8-14.8-6.1-22.7-5.7l33.7-19.5
			c11.7,7.6,26.4-6.5,19.2-18.6c-3.8-6.6-12.2-8.8-18.8-5c-4.4,2.5-7,7.3-6.9,12.3L96.7,50.9c4.3-6.6,7.3-14.5,6.4-22.4
			c5.7-1,5.2,5.3,7.9,5.2c1.2-0.1,2.9-1.1,2.8-2.5c-1.6-2.5-4.1-4.9-7.2-5.4c-0.5-4,7.7-3.2,10.3-2c1.9,0.3,3.5,2.9,5.3,1.8
			c0.9-0.5,1.6-1.2,2.2-2c0.9-1.2,1.5-3.6,0.4-4.8c-2.8-1.3-5.8-2-8.8-2.1c3.6-2.4,8-3.5,12.3-2.8c1.3,0.4,1.9-0.2,2.4-1.5
			c0.4-0.8,0.5-1.7,0.4-2.6c-0.2-3.1-2.2-2.4-4.4-2.1c-4,0.6-7.7,2.4-10.5,5.2c0.5-9.9-3.6-19.9-11.5-24.1l0,0l-0.1-0.1l0,0
			c-7.5-4.6-17.9-3.3-26.3,1.9c0.9-3.8,0.6-7.8-0.8-11.4c-0.9-2.1-1.3-4.1-4-2.8c-0.8,0.4-1.5,1-2,1.7c-0.9,1.1-1.1,1.9,0,2.8
			c2.6,3.3,4,7.5,3.7,11.8L74.9-7c-1.6-2.5-3.7-4.7-6.1-6.4c-1.5-0.3-3.2,1.4-3.9,2.8c-0.4,0.9-0.6,1.9-0.6,2.9c0,2.1,3,2.2,4.2,3.7
			c2.4,1.5,6.8,8.3,3.3,9.8c-1.9-2.4-5.2-3.3-8.2-3.4c-1.2,0.6-1.3,2.5-0.7,3.6c1.2,2.4,6.5-1.2,8.4,4.3C63.9,13.3,58.5,19.9,55,27
			v-39c12.5-6.2,7.5-26.3-6.5-25.9C34.4-38.1,29.6-18.2,42-12v38.8c-3.6-7-8.9-13.6-16.2-16.7c2-5.4,7.1-1.8,8.4-4.3
			c0.6-1.1,0.5-3-0.7-3.6c-3,0.1-6.4,1.1-8.3,3.7C22,4.2,26.1-2.4,28.6-4c1.2-1.5,4.2-1.6,4.2-3.7c0-1-0.2-2-0.6-2.9
			c-0.6-1.4-2.4-3.1-3.9-2.8c-2.5,1.7-4.6,3.9-6.2,6.5c-0.3-4.3,1-8.6,3.7-12c1-0.9,0.8-1.7,0-2.8c-0.5-0.7-1.2-1.3-2-1.7
			c-2.8-1.3-3.2,0.7-4,2.8C18.1-17,17.9-12.8,18.9-9c-8.3-5.3-19-6.8-26.6-2.2l0,0L-7.9-11l0,0c-7.7,4.2-11.8,13.9-11.5,23.7
			c-2.8-2.7-6.4-4.4-10.2-5c-2.2-0.3-4.2-0.9-4.4,2.1c-0.1,0.9,0.1,1.8,0.4,2.6c0.5,1.3,1.1,1.9,2.4,1.5c4.2-0.6,8.5,0.3,12.1,2.7
			v0.3c-3,0.1-5.9,0.8-8.6,2.1c-1,1.2-0.4,3.6,0.4,4.8c0.6,0.8,1.4,1.5,2.2,2c1.8,1.1,3.4-1.5,5.3-1.8c2.6-1.4,10.4-1.6,10.3,2
			c-3.2,0.4-5.7,2.8-7.3,5.4c-0.1,1.3,1.5,2.4,2.8,2.4c2.7,0.1,2.2-6.2,7.9-5.2c-1,8,2.1,15.9,6.5,22.5l-33.8-19.5
			c0.7-14-18.9-19.6-25.7-7.3c-7.2,12,7.4,26.2,19.2,18.6l33.6,19.4c-7.9-0.4-16.2,0.9-22.6,5.7c-3.7-4.4,2-7.1,0.5-9.4
			c-0.7-1-2.4-1.9-3.5-1.2c-1.5,2.8-2.4,6.3-0.9,9.3c-3.3,1.4-6.9-5.1-7-8.2c-0.7-1.8,0.7-4.4-1.1-5.5c-0.9-0.5-1.9-0.8-2.9-1
			c-1.5-0.1-3.8,0.5-4.3,2c0.2,3,1.1,6,2.6,8.7c-3.9-1.9-7-5.2-8.6-9.2c-0.3-1.3-1.1-1.6-2.5-1.4c-0.9,0.1-1.7,0.4-2.5,0.9
			c-2.5,1.7-1,3.1,0.4,4.9c2.5,3.2,5.9,5.5,9.8,6.6c-8.8,4.5-15.4,13.1-15.2,22l0,0v0.2l0,0c-0.2,8.8,6.1,17.1,14.8,21.8
			c-3.7,1.1-7,3.3-9.4,6.4c-1.4,1.8-2.9,3.2-0.4,4.9c0.7,0.5,1.6,0.8,2.5,0.9c1.4,0.2,2.2,0,2.5-1.4c1.6-3.9,4.5-7.2,8.3-9.1h0.1
			c-1,2.6-4.5,8.7-0.7,10.1c1,0.4,2.2,0.5,3.3,0.3c0.8-0.1,1.5-0.4,2.2-0.8c1.9-1,0.4-3.7,1.1-5.5c0.1-3.2,3.8-9,7-8
			c-1.3,2.9-0.5,6.4,1,9.1c1.1,0.8,2.8-0.1,3.5-1.2c1.5-2.3-4.2-5-0.5-9.4c6.4,4.8,14.8,6.1,22.7,5.7l-33.7,19.6
			c-11.6-7.6-26.4,6.5-19.2,18.6c6.9,12.4,26.4,6.6,25.7-7.3l33.6-19.4c-4.3,6.6-7.3,14.5-6.4,22.4c-5.7,1-5.2-5.3-7.9-5.2
			c-1.2,0-2.9,1.1-2.8,2.4c1.7,2.7,4.4,5.2,7.7,5.4c0,3.8-8,3.3-10.7,2c-1.9-0.3-3.5-2.9-5.3-1.8c-0.9,0.5-1.6,1.2-2.2,2
			c-0.9,1.2-1.5,3.6-0.4,4.8c2.7,1.3,5.7,2.1,8.8,2.1c-3.6,2.4-8,3.4-12.3,2.8c-1.3-0.4-1.9,0.1-2.4,1.4c-0.4,0.8-0.5,1.7-0.4,2.6
			c0.2,3.1,2.2,2.4,4.4,2.1c4-0.5,7.7-2.4,10.5-5.2c-0.5,9.9,3.6,19.9,11.5,24.1l0,0l0.1,0.1l0,0c7.5,4.6,17.9,3.3,26.3-1.9
			c-0.9,3.8-0.6,7.8,0.8,11.4c0.9,2.1,1.3,4.1,4,2.8c0.8-0.4,1.5-0.9,2-1.7c0.9-1.1,1.1-1.9,0-2.8c-2.6-3.3-3.9-7.5-3.7-11.7
			l0.1-0.1c1.7,2.2,5.3,8.2,8.3,5.7c0.9-0.7,1.6-1.7,1.9-2.8c0.3-0.7,0.4-1.5,0.4-2.3c0-2.1-3-2.2-4.2-3.7c-2.8-1.7-5.6-7.5-3.4-9.9
			c1.9,2.5,5.2,3.4,8.3,3.6c1.2-0.6,1.3-2.5,0.7-3.6c-1.2-2.4-6.5,1.2-8.4-4.3c7.4-3.1,12.7-9.8,16.3-16.8v38.9
			c-4.5,2.4-7.3,7.1-7.3,12.2l0,0c-0.3,10.3,11.9,17.3,20.6,11.9c9.2-4.8,9-19.6-0.4-24v-38.8c3.6,7,8.9,13.6,16.2,16.7
			c-2,5.4-7.1,1.8-8.4,4.3c-0.5,1.1-0.5,3,0.7,3.6c3.1-0.1,6.7-1.2,8.5-3.9c3.8,1.7-1.4,8.6-3.6,10.2c-1.2,1.5-4.2,1.6-4.2,3.7
			c0,1,0.2,2,0.6,2.9c0.6,1.4,2.4,3.1,3.9,2.8c2.5-1.7,4.7-4,6.2-6.6c0.3,4.3-1,8.6-3.7,12c-1,0.9-0.8,1.7,0,2.8
			c0.5,0.7,1.2,1.3,2,1.7c2.8,1.3,3.2-0.7,4-2.8c1.5-3.7,1.8-7.8,0.7-11.7c8.3,5.4,19,6.8,26.6,2.2l0,0l0.1-0.1l0,0
			c7.7-4.2,11.8-13.9,11.5-23.7c2.8,2.7,6.4,4.4,10.2,5c2.2,0.3,4.2,0.9,4.4-2.1c0.1-0.9-0.1-1.8-0.4-2.6c-0.5-1.3-1.1-1.9-2.4-1.4
			c-4.2,0.6-8.5-0.3-12-2.6v-0.1c2.7-0.4,9.8-0.4,9.1-4.4c-0.1-1.1-0.6-2.2-1.4-3c-0.5-0.6-1.1-1.1-1.8-1.5
			c-1.8-1.1-3.4,1.5-5.3,1.8c-1.9,0.7-4,1.1-6,1c-1.9-0.7-4.4-2-4-3c3-0.5,5.4-2.8,7-5.3c0.1-1.3-1.5-2.4-2.8-2.4
			c-2.7-0.1-2.2,6.2-7.9,5.2c1-8-2.1-15.9-6.5-22.5l33.7,19.5c-0.8,13.9,18.9,19.6,25.7,7.3c7.3-12.1-7.5-26.2-19.2-18.6l-33.6-19.4
			c7.9,0.4,16.2-0.9,22.6-5.7c3.7,4.4-2,7.1-0.5,9.4c0.7,1,2.4,1.9,3.5,1.2c1.4-2.7,2.3-6.2,0.9-9.1c3.5-2.4,6.6,5.2,7,8.1
			c0.7,1.8-0.7,4.4,1.1,5.5c0.9,0.5,1.9,0.8,2.9,1c1.5,0.1,3.8-0.5,4.3-2c-0.2-3-1.1-6-2.6-8.7c3.9,1.9,7,5.2,8.6,9.2
			c0.3,1.3,1.1,1.6,2.5,1.4c0.9-0.1,1.7-0.4,2.5-0.9c2.5-1.7,1-3.1-0.4-4.9c-2.5-3.2-5.9-5.5-9.8-6.5c8.8-4.6,15.4-13.1,15.2-22l0,0
			c0,0,0-0.1,0-0.1L161,86.1z M141.5,26.6c5.7-3.4,10.9,5.6,5.1,8.9C140.9,38.7,135.8,29.9,141.5,26.6L141.5,26.6z M-42.7,33.7
			c-3.2,5.8-12.3,0.6-8.8-5.1C-48.4,22.8-39.3,28-42.7,33.7z M-44.5,146c-5.7,3.4-10.9-5.6-5.1-8.8S-38.8,142.7-44.5,146z
			 M139.7,138.9c3.2-5.8,12.2-0.6,8.8,5.1S136.3,144.6,139.7,138.9z M120.4,72.3c6.1,3.8,8.3,7.9,9.1,10.6h-12.8
			c-4.8-14.4-29.5-6.9-45.3-2.4L86,72.3C93.6,69.8,110.2,65.9,120.4,72.3L120.4,72.3z M11.7,144l-6.4,11.1c-2-2-4.6-6-4.9-13.5
			c-0.4-11.9,11.1-24.2,16.9-29.7l15.5-9C21.2,114.2,1.4,132.7,11.7,144z M16.6,130.1c3.9-7.6,13.5-16.7,19.9-22.6l0.3-0.3l-0.1,0.7
			c-2,8.9-4.8,21.4-9.4,28.3c-0.6-4.2-4.5-7.2-8.8-6.6C17.7,129.7,17.1,129.9,16.6,130.1L16.6,130.1z M26.3,36.5
			C31,43.6,34,56.5,36,65l0.1,0.4l-0.5-0.5c-6.7-6.2-16.1-14.9-19.8-22.3c4,1.6,8.5-0.3,10.1-4.3C26.1,37.8,26.3,37.2,26.3,36.5
			L26.3,36.5z M32,69.3L17.5,61C10,53.8,0.3,42.9,0.4,31c0.3-7.6,3-11.7,5-13.6l6.4,11.1C0.9,39.8,20.1,57.8,32,69.3z M-2.6,86.5
			c0-2.4-1.1-4.6-2.9-6.1C3,80,15.6,83.8,23.9,86.3l0.4,0.1l-0.6,0.2c-8.7,2.7-20.9,6.5-29.2,5.9C-3.7,91.1-2.6,88.9-2.6,86.5z
			 M39.8,91.4c-6.4-11.6,10.7-21.4,17.5-10.1C63.7,92.9,46.6,102.7,39.8,91.4z M99.5,85.7c0,2.4,1.1,4.7,3,6.1
			C94,92.2,81.3,88.4,73,85.8l-0.4-0.1l0.6-0.2c8.7-2.7,20.9-6.5,29.2-5.9C100.7,81,99.6,83.3,99.5,85.7z M80.4,42.1
			c-3.9,7.6-13.5,16.7-19.8,22.6L60.3,65c0-0.2,0.1-0.4,0.2-0.6c2-8.9,4.8-21.4,9.4-28.3c0.6,4.2,4.6,7.2,8.8,6.6
			C79.2,42.5,79.8,42.3,80.4,42.1L80.4,42.1z M70.6,135.7c-4.7-7.2-7.7-20-9.7-28.5l-0.1-0.4l0.5,0.5c6.7,6.2,16.1,14.9,19.8,22.3
			c-4-1.6-8.5,0.3-10.1,4.3C70.8,134.5,70.7,135.1,70.6,135.7L70.6,135.7z M64.2,69.7c11.7-11.4,31.7-30,20.9-41.3l6.4-11.1
			c12.9,12.6-1.4,35.2-11.8,43.4L64.2,69.7z M65,103.3l14.5,8.3c7.5,7.1,17.2,18,17.1,29.9c-0.3,7.3-2.8,11.3-4.8,13.4l-6.4-11.1
			C95.8,132.5,76.9,114.8,65,103.3z M102.5-1.7l1.8-3.2c5.3,4.4,8.1,12.3,6.3,22.3c-3.3,0.9-6.3,2.8-8.7,5.3
			c-0.9-3.3-2.5-6.3-4.7-8.9C104.6,12.7,107.1,3.2,102.5-1.7z M77-2.2c7.7-6.4,15.8-7.9,22.2-5.6l-1.9,3.2C90.7-5.8,84.1,1,86.7,7.8
			c-3.3-0.6-6.7-0.4-9.9,0.4c0.4-1.5,0.7-3.1,0.7-4.7C77.7,1.6,77.5-0.4,77-2.2L77-2.2z M55,46.8C57.6,32,69.1,10.5,86.2,14.5
			l-6.3,11c-15.1-3.3-21,22-25,38V46.8z M53.6-24.1c0.1,6.6-10.3,6.6-10.2,0C43.3-30.7,53.7-30.7,53.6-24.1z M39,36.5
			c3.8,7.4,3,20.2,3,28c-4-15.7-10.1-42-25-38.9l-6.4-11.1C22.7,11.1,35.5,24.3,39,36.5z M-5,22.7c-2.4-2.6-5.5-4.4-8.9-5.4
			C-14.7,12-15,1.1-7.6-5l1.9,3.4c-4.7,5-2.1,14.6,5.2,15.6C-2.6,16.5-4.1,19.5-5,22.7L-5,22.7z M-0.4-4.6l-2-3.4
			c9-3,18.2,2.8,22.3,5.9c-0.8,3.3-0.8,6.8,0.2,10.1c-3.3-0.8-6.7-1-10-0.4C12.8,1.1,6.1-5.7-0.4-4.6z M-23.4,72.3
			c10.2-5.9,24.3-3.1,34.2-0.2l15.5,9c-15.5-4.3-41.3-12.2-46.1,2h-12.8C-31.9,80.4-29.6,76.1-23.4,72.3z M-42.5,105.9
			c-9.7-3.6-15-10.1-16-16.9h3.9c1.9,5.8,8.7,10.2,16,3.5c1.1,3.1,2.9,6,5.3,8.3C-36.8,101.6-39.9,103.4-42.5,105.9L-42.5,105.9z
			 M-38.6,80.2c-1.8-2.1-4.4-3.3-7.1-3.2c-5.2,0.6-7.9,3.1-8.9,6.1h-3.6c1.4-6.6,6.8-12.8,16.1-16.2c2.5,2.4,5.5,4.1,8.9,4.9
			C-35.7,74.2-37.5,77.1-38.6,80.2z M-23.4,100.4c-6.6-4.1-8.7-8.6-9.3-11.3H-20c4.2,15.3,29.5,7.7,45.5,3.1l-14.4,8.3
			C3.4,102.8-13.2,106.8-23.4,100.4z M-5.7,174.1l-1.8,3.2c-5.1-4.5-7.9-12.3-6.1-22.1c3.3-0.9,6.3-2.8,8.7-5.3
			c0.9,3.3,2.5,6.3,4.7,8.9C-7.5,159.9-10,169.1-5.7,174.1z M20.1,174.9c-7.9,6.5-16.1,7.9-22.5,5.5l1.8-3.2
			c6.6,1.5,13.6-5.5,10.9-12.3c3.3,0.6,6.7,0.4,9.9-0.4c-0.5,1.5-0.7,3.1-0.8,4.7C19.3,171,19.5,173,20.1,174.9L20.1,174.9z
			 M42.1,125.9c-2.6,14.9-14.3,36.5-31.6,32.2l6.4-11c15.6,3.6,21.1-22,25.2-37.9V125.9z M43.5,196.7c-0.1-6.6,10.3-6.6,10.2,0
			C53.8,203.3,43.3,203.3,43.5,196.7L43.5,196.7z M58.1,136.2c-3.9-7.5-3-20.2-3-28c4,15.8,10.2,42.4,25.3,38.8l6.4,11.1
			C74.6,161.8,61.5,148.5,58.1,136.2L58.1,136.2z M102.1,149.9c2.4,2.6,5.5,4.4,9,5.4c0.7,5.3,1,16-6.1,22.2l-2-3.4
			c4.3-5.1,1.7-14.3-5.5-15.3C99.6,156.1,101.1,153.1,102.1,149.9L102.1,149.9z M97.8,177.1l1.9,3.4c-9.1,3.3-18.5-2.6-22.6-5.9
			c0.8-3.3,0.8-6.8-0.2-10.1c3.3,0.9,6.7,1,10,0.4C84.2,171.7,91.1,178.6,97.8,177.1z M120.5,100.4c-10.2,6-24.3,3.1-34.2,0.2
			l-15.5-9c15.7,4.3,41.6,12.7,46.3-2.7h12.8C129.2,91.5,127.2,96.1,120.5,100.4L120.5,100.4z M139.5,66.7
			c9.3,3.5,14.6,9.6,15.9,16.2h-4.1c-2.2-5.5-8.8-9.3-15.7-2.8c-1.1-3.1-2.9-6-5.3-8.3C133.8,71,136.9,69.2,139.5,66.7L139.5,66.7z
			 M139.3,105.7c-2.5-2.4-5.6-4.1-8.9-4.9c2.4-2.4,4.2-5.3,5.3-8.5c1.8,2.1,4.4,3.2,7.1,3.2c5.5-0.6,8.3-3.5,9.1-6.7h3.6
			C154.3,95.7,148.8,102.2,139.3,105.7L139.3,105.7z"/>
	</g>
</g>
<g id="Layer_2_00000180362659123700820620000001252477695646071971_">
	<g id="Layer_1-2_00000173878568783852033360000010404139252366567838_">
		<path class="st0" d="M1177,223.3c-0.1-2.6-4-2.7-8.4-0.5c-3.7,1.9-7.7,6.5-7.7,6.5c-0.7-2.2-3.2-2.2-3.2-2.2
			c7.9-2.7,9.9-7.9,9.4-10.8s-3.7-3.5-3.7-3.5c1.9-3.6-2.7-6.5-2.7-6.5c2.2,0.3,4.3,3.3,7.1,3.4s3.7-3,3.7-3
			c2.1,1.1,2.5-0.6,2.5-1.4c0-0.8-0.5-2.5-2.6-1.4c0,0-0.9-3.1-3.7-3c-2.9,0.1-4.9,3.1-7.1,3.4c0,0,4.6-2.8,2.7-6.5
			c0,0,3.2-0.5,3.7-3.5s-1.4-8.1-9.4-10.8c0,0,2.6,0.1,3.2-2.2c0,0,4,4.6,7.7,6.5c4.4,2.2,8.3,2.1,8.4-0.5c0.1-2.6-3.9-1.3-6.6-2.1
			c-2-0.7-3.8-1.6-5.5-2.8c0,0,4.7,1.3,7,0c1.9-1,2-2.5,1.6-3s-1.3-0.8-4,0.4s-3.2,0.8-3.2,0.8c1.6-1.1,2.9-2.5,4-4.1
			c1-1.7,1.9-3.4,2.7-5.2c-1.9-0.2-3.9-0.3-5.8-0.3c-1.9,0.1-3.8,0.6-5.5,1.4c0,0-0.2-0.7,2.3-2.4c2.4-1.7,2.7-2.7,2.4-3.2
			c-0.3-0.5-1.5-1.2-3.4-0.1c-2.3,1.4-3.5,6.1-3.5,6.1c-0.2-2.1-0.1-4.1,0.3-6.2c0.6-2.7,3.8-5.5,1.5-6.8c-2.3-1.2-4.3,2.1-4.6,7
			c-0.2,4.1,1.8,9.9,1.8,9.9c-2.3-0.5-3.5,1.7-3.5,1.7c1.6-8.2-1.9-12.5-4.7-13.5c-2.8-1-4.9,1.5-4.9,1.5c-2.2-3.5-7-0.9-7-0.9
			c1.4-1.8,5-2,6.5-4.5c1.5-2.4-0.7-4.7-0.7-4.7c2.1-1.3,0.8-2.4,0.2-2.8c-0.6-0.4-2.5-0.9-2.6,1.5c0,0-3.1-0.8-4.5,1.7
			c-1.4,2.5,0.2,5.8-0.6,7.9c0,0-0.1-5.4-4.2-5.6c0,0,1.1-3.1-1.2-5c-2.3-1.9-7.7-2.8-14,2.7c0,0,1.4-2.2-0.2-3.9c0,0,6-1.1,9.4-3.4
			c4.1-2.7,6-6.1,3.8-7.5c-2.2-1.4-3.1,2.8-5.1,4.6c-1.6,1.4-3.3,2.5-5.2,3.3c0,0,3.5-3.4,3.5-6.1c0-2.1-1.1-3-1.7-2.9
			s-1.4,0.7-1.6,3.7c-0.3,3-1,3.2-1,3.2c-0.2-1.9-0.7-3.8-1.6-5.5c-0.9-1.7-2-3.3-3.1-4.9c-1.2,1.5-2.2,3.2-3.1,4.9
			c-0.9,1.7-1.4,3.6-1.5,5.5c0,0-0.7-0.2-0.9-3.2s-1-3.7-1.6-3.7c-0.6-0.1-1.8,0.8-1.7,2.9c0,2.7,3.5,6.1,3.5,6.1
			c-1.9-0.8-3.6-2-5.2-3.3c-2.1-1.9-3-6-5.2-4.6c-2.2,1.4-0.3,4.8,3.8,7.5c3.5,2.3,9.4,3.4,9.4,3.4c-1.6,1.7-0.2,3.9-0.2,3.9
			c-6.3-5.5-11.8-4.6-14.1-2.7c-2.3,1.9-1.2,5-1.2,5c-4.1,0.2-4.2,5.6-4.2,5.6c-0.8-2.1,0.7-5.4-0.6-7.9c-1.4-2.5-4.4-1.8-4.4-1.8
			c-0.1-2.4-1.9-1.8-2.5-1.4c-0.6,0.3-1.8,1.6,0.2,2.9c0,0-2.2,2.3-0.7,4.7c1.5,2.4,5.1,2.7,6.5,4.5c0,0-4.7-2.6-7,0.9
			c0,0-2.1-2.5-4.9-1.5c-2.8,1-6.3,5.3-4.7,13.5c0,0-1.2-2.3-3.5-1.7c0,0,2-5.7,1.8-9.9c-0.3-4.9-2.3-8.2-4.6-7
			c-2.3,1.2,0.9,4.1,1.5,6.8c0.4,2,0.5,4.1,0.3,6.2c0,0-1.2-4.7-3.5-6.1c-1.8-1.1-3.1-0.5-3.4,0.1c-0.2,0.6,0,1.6,2.4,3.2
			c2.4,1.7,2.3,2.5,2.3,2.5c-1.7-0.8-3.6-1.3-5.5-1.4c-1.9-0.1-3.9,0-5.8,0.2c0.7,1.8,1.6,3.5,2.6,5.2c1,1.6,2.4,3,4,4.1
			c0,0-0.5,0.5-3.2-0.8c-2.7-1.3-3.7-0.9-4-0.4c-0.4,0.5-0.2,1.9,1.6,3c2.3,1.3,7,0,7,0c-1.7,1.2-3.5,2.2-5.5,2.8
			c-2.6,0.9-6.7-0.5-6.6,2.2c0.1,2.6,4,2.7,8.4,0.5c3.7-1.9,7.7-6.5,7.7-6.5c0.6,2.2,3.2,2.2,3.2,2.2c-7.9,2.8-9.9,7.9-9.4,10.9
			s3.7,3.5,3.7,3.5c-1.9,3.6,2.7,6.5,2.7,6.5c-2.2-0.3-4.3-3.3-7.1-3.4s-3.7,3-3.7,3c-2.1-1.1-2.6,0.7-2.6,1.4
			c0,0.6,0.6,2.5,2.7,1.4c0,0,0.9,3.1,3.7,3c2.9-0.1,4.9-3.1,7.1-3.4c0,0-4.6,2.8-2.7,6.5c0,0-3.2,0.5-3.7,3.5
			c-0.5,3,1.4,8.1,9.4,10.8c0,0-2.6-0.1-3.2,2.2c0,0-4-4.6-7.7-6.5c-4.4-2.3-8.3-2.2-8.4,0.4c-0.1,2.6,3.9,1.3,6.6,2.1
			c2,0.7,3.8,1.6,5.5,2.8c0,0-4.7-1.3-7,0c-1.9,1-2,2.5-1.6,3c0.4,0.5,1.3,0.8,4-0.4s3.2-0.8,3.2-0.8c-1.6,1.1-2.9,2.5-4,4.1
			c-1,1.7-1.9,3.4-2.7,5.2c1.9,0.2,3.9,0.3,5.8,0.3c1.9-0.1,3.8-0.6,5.5-1.4c0,0,0.2,0.7-2.3,2.4c-2.4,1.7-2.7,2.7-2.4,3.2
			c0.3,0.5,1.5,1.2,3.4,0.1c2.3-1.4,3.5-6.1,3.5-6.1c0.2,2.1,0.1,4.1-0.3,6.2c-0.6,2.7-3.8,5.5-1.5,6.8c2.3,1.2,4.3-2.1,4.6-7
			c0.2-4.1-1.8-9.9-1.8-9.9c2.3,0.5,3.5-1.7,3.5-1.7c-1.6,8.2,1.9,12.5,4.7,13.5c2.8,1,4.9-1.4,4.9-1.4c2.2,3.5,7,0.9,7,0.9
			c-1.4,1.8-5,2-6.5,4.5c-1.5,2.4,0.7,4.7,0.7,4.7c-2.1,1.3-0.6,2.6-0.2,2.9s2.5,0.9,2.6-1.6c0,0,3.1,0.8,4.5-1.7
			c1.4-2.5-0.2-5.8,0.6-7.9c0,0,0.1,5.4,4.2,5.6c0,0-1.1,3.1,1.2,5c2.3,1.9,7.7,2.8,14.1-2.7c0,0-1.4,2.2,0.2,3.9c0,0-6,1.1-9.4,3.4
			c-4.1,2.7-6,6.1-3.8,7.5c2.2,1.4,3.1-2.8,5.1-4.6c1.6-1.4,3.3-2.5,5.2-3.3c0,0-3.5,3.4-3.5,6.1c0,2.1,1.1,3,1.7,2.9
			c0.6-0.1,1.4-0.7,1.6-3.7c0.3-3,0.9-3.2,0.9-3.2c0.2,1.9,0.7,3.8,1.5,5.5c0.9,1.7,2,3.4,3.1,4.9c1.2-1.5,2.2-3.2,3.1-4.9
			c0.9-1.7,1.4-3.6,1.6-5.5c0,0,0.6,0.2,0.9,3.2c0.3,3,1,3.7,1.6,3.7c0.6,0.1,1.8-0.8,1.7-2.9c0-2.7-3.5-6.1-3.5-6.1
			c1.9,0.8,3.6,2,5.2,3.3c2.1,1.9,2.9,6,5.1,4.6c2.2-1.4,0.3-4.8-3.8-7.5c-3.5-2.3-9.4-3.4-9.4-3.4c1.6-1.7,0.2-3.9,0.2-3.9
			c6.3,5.5,11.8,4.6,14.1,2.7c2.3-1.9,1.2-5,1.2-5c4.1-0.2,4.2-5.6,4.2-5.6c0.8,2.1-0.7,5.4,0.6,7.9c1.4,2.5,4.5,1.7,4.5,1.7
			c0.1,2.4,2.1,1.7,2.5,1.4c0.5-0.3,1.9-1.6-0.2-2.9c0,0,2.2-2.3,0.7-4.7c-1.5-2.4-5.1-2.7-6.5-4.5c0,0,4.7,2.6,7-0.9
			c0,0,2.1,2.5,4.9,1.5c2.8-1,6.3-5.3,4.7-13.5c0,0,1.2,2.3,3.5,1.7c0,0-2,5.7-1.8,9.9c0.3,4.9,2.3,8.2,4.6,7c2.3-1.2-0.9-4-1.4-6.8
			c-0.4-2-0.5-4.1-0.3-6.2c0,0,1.2,4.7,3.5,6.1c1.8,1.1,3.1,0.5,3.4-0.1c0.2-0.6,0-1.6-2.4-3.3c-2.4-1.7-2.3-2.4-2.3-2.4
			c1.7,0.8,3.6,1.3,5.5,1.4c1.9,0.1,3.9,0,5.8-0.2c-0.7-1.8-1.6-3.5-2.6-5.2c-1-1.6-2.4-3-4-4.1c0,0,0.5-0.5,3.2,0.8s3.7,0.9,4,0.4
			c0.4-0.5,0.2-1.9-1.6-3c-2.3-1.3-7,0-7,0c1.7-1.2,3.5-2.2,5.5-2.8C1173.1,224.6,1177.1,226,1177,223.3z M1167.1,203.2
			c1.7,0.1,1.9,1.2,2,2.2c0.1,1-0.3,2.1-1.9,2.2c-1.2,0.1-3.7-2.2-3.7-2.2S1165.8,203.1,1167.1,203.2z M1164.8,174.7
			c1.4-0.6,3-0.9,4.5-1c-0.9,1.3-2,2.5-3.2,3.4c-1.3,0.8-2.9,1.2-4.5,1C1161.6,178.1,1162.6,175.7,1164.8,174.7L1164.8,174.7z
			 M1138.8,158.6c1-1.4,2-0.9,2.6-0.6c0.6,0.3,2,1.2,1.2,2.7c-0.6,1.1-3.8,1.9-3.8,1.9S1138,159.6,1138.8,158.6L1138.8,158.6z
			 M1089.6,162.7c0,0-3.1-0.8-3.6-1.9c-0.5-1.1-0.1-2.4,1-2.9c0,0,0,0,0,0c0.9-0.6,2.1-0.3,2.7,0.6c0,0,0,0,0,0
			C1090.4,159.6,1089.6,162.7,1089.6,162.7z M1062.4,177.1c-1.2-0.9-2.3-2.1-3.1-3.4c1.6,0.1,3.1,0.5,4.5,1.1
			c1.4,0.7,2.5,1.9,3.1,3.3C1067,178.1,1064.4,178.5,1062.4,177.1z M1061.5,207.6c-1.1-0.1-2-1-1.9-2.2c-0.1-1.1,0.7-2.1,1.8-2.2
			c0,0,0,0,0,0c1.2-0.2,3.3,2.2,3.3,2.2S1062.7,207.8,1061.5,207.6L1061.5,207.6z M1063.8,236.1c-1.4,0.6-3,0.9-4.5,1
			c0.9-1.3,2-2.5,3.2-3.4c1.3-0.8,2.9-1.2,4.5-1C1067,232.7,1066,235.2,1063.8,236.1L1063.8,236.1z M1089.8,252.2
			c-0.8,0.9-2.1,1.1-3.1,0.5c-0.6-0.3-1.4-1-0.8-2.6c0.4-1.2,3.7-2,3.7-2S1090.6,251.2,1089.8,252.2L1089.8,252.2z M1138.9,248
			c0,0,3.2,0.8,3.6,1.9c0.5,0.9,0.1,2.1-0.8,2.6c-0.9,0.7-2.2,0.6-3-0.3C1138,251.3,1139,248.1,1138.9,248L1138.9,248z
			 M1156.7,188.9c1-1.2,3.2-1,4.9,0.5s2.3,3.6,1.3,4.7c-1,1.2-3.2,1-4.9-0.5C1156.3,192.2,1155.8,190.1,1156.7,188.9L1156.7,188.9z
			 M1148.4,168.9c1.5-0.3,3.1,1.3,3.4,3.5c0.4,2.2-0.5,4.2-2,4.5s-3-1.3-3.4-3.5C1146,171.1,1147,169.2,1148.4,168.9z M1139.9,167.6
			c3.8-0.8,3.7,3.1,1,3.6c-1.8,0.3-3.6,0.3-5.3,0C1135.6,170.9,1137,168.2,1139.9,167.6L1139.9,167.6z M1141,180.2
			c-1.2,0.7-2.3,1.5-3.4,2.4c-0.4-0.3-2.4-1.3-2.4-1.3l3.2-3.7c0.6,0.3,1.1,0.7,1.5,1.2C1140.4,179.2,1140.7,179.6,1141,180.2
			L1141,180.2z M1135,176c0.6,0.1,1.3,0.3,1.8,0.6l-3.1,4.1c-1.4-0.3-2.9-0.1-4.1,0.7l3.4-5.4C1133.7,175.9,1134.4,175.9,1135,176
			L1135,176z M1134.2,164.4c0.9,2.8-0.6,5.4-1,5.6c-1.1-1.4-2-2.9-2.6-4.6C1129.7,162.7,1133,160.6,1134.2,164.4L1134.2,164.4z
			 M1130.4,174.6l-3,5.7c0-1.4-0.5-2.8-1.5-3.9l2-4.8c0.5,0.4,1,0.8,1.4,1.3C1129.8,173.3,1130.2,173.9,1130.4,174.6z M1129.7,198.7
			c0.7,1.6-0.9,3-0.9,3s0.5-1.7,0.1-2.6c-0.3-0.6-0.8-1-1.5-1.2c0.2-0.7,0.1-1.4-0.3-1.9c-0.6-0.9-2.3-1.2-2.3-1.2s1.9-0.7,3,0.7
			c0.4,0.6,0.6,1.3,0.5,1.9C1129,197.5,1129.5,198,1129.7,198.7z M1126.3,198.4c1.5,3-7.7,4.5-7.7,4.5S1124.5,195.6,1126.3,198.4
			L1126.3,198.4z M1127.5,213.1c0.7-0.2,1.2-0.6,1.6-1.2c0.4-1-0.1-2.6-0.1-2.6s1.6,1.3,0.9,3c-0.3,0.7-0.8,1.2-1.4,1.4
			c0.1,0.7-0.1,1.3-0.5,1.9c-1,1.4-2.9,0.8-2.9,0.8s1.7-0.4,2.3-1.2C1127.6,214.4,1127.7,213.7,1127.5,213.1z M1126.3,212.4
			c-1.8,2.8-7.8-4.4-7.8-4.4S1127.9,209.3,1126.3,212.4L1126.3,212.4z M1118.1,197.3c0,0,3.6-7.2,0.9-9.7c-0.5-0.6-1.2-0.9-2-1
			l-0.2-0.2v-4.3c1.1-0.5,2.3-0.5,3.4-0.1c3.2,1.3,2.8,6.2,2.8,6.2S1117.4,198.8,1118.1,197.3z M1118.3,190.9c0,0-1.2-1.3-2.2-1.4
			c-0.7-0.1-1.3,0.2-1.8,0.6c-0.5-0.5-1.1-0.8-1.8-0.7c-1.1,0.1-2.2,1.4-2.2,1.4s0.4-2,2.1-2.2c0.7-0.1,1.4,0.1,1.9,0.5
			c0.5-0.4,1.2-0.6,1.9-0.5C1117.9,188.8,1118.3,190.9,1118.3,190.9z M1114.3,208c-1.4,0-2.6-1.2-2.6-2.6c0-1.4,1.2-2.6,2.6-2.6
			c1.4,0,2.6,1.2,2.6,2.6C1116.9,206.8,1115.7,208,1114.3,208z M1114.3,219.3c-3.4-0.2,0-8.9,0-8.9S1117.7,219.2,1114.3,219.3
			L1114.3,219.3z M1114.2,191.5c3.4,0.2,0,8.9,0,8.9S1110.9,191.7,1114.2,191.5z M1111.7,186.5l-0.1,0.1c-0.8,0.1-1.5,0.4-2,1
			c-2.7,2.4,0.9,9.7,0.9,9.7c0.6,1.5-5-9-5-9s-0.4-4.9,2.8-6.2c1.1-0.4,2.3-0.3,3.3,0.1L1111.7,186.5z M1098.8,212.2
			c-0.7-1.6,0.9-3,0.9-3s-0.5,1.7-0.1,2.6c0.3,0.6,0.8,1,1.5,1.2c-0.2,0.7-0.1,1.4,0.3,1.9c0.6,0.9,2.3,1.2,2.3,1.2s-1.9,0.7-3-0.7
			c-0.4-0.6-0.6-1.3-0.5-1.9C1099.5,213.3,1099.1,212.8,1098.8,212.2z M1102.2,212.4c-1.5-3,7.7-4.5,7.7-4.5
			S1104.1,215.2,1102.2,212.4z M1101,197.8c-0.7,0.2-1.2,0.6-1.6,1.2c-0.4,1,0.1,2.6,0.1,2.6s-1.6-1.3-0.9-3
			c0.3-0.6,0.8-1.2,1.4-1.4c-0.1-0.7,0.1-1.3,0.5-1.8c1-1.4,3-0.7,3-0.7s-1.7,0.4-2.3,1.2C1101,196.5,1100.9,197.1,1101,197.8z
			 M1102.2,198.5c1.8-2.8,7.8,4.4,7.8,4.4S1100.7,201.5,1102.2,198.5z M1109.1,198.1c0,0-4.5-6.7-7.9-5.6c-0.7,0.2-1.4,0.6-1.9,1.2
			l-0.3,0l-3.7-2.1c0.1-1.2,0.7-2.2,1.6-3c2.8-2.2,6.8,0.6,6.8,0.6S1110.2,199.4,1109.1,198.1L1109.1,198.1z M1096.6,198.2l0.1,0.1
			c-0.3,0.7-0.4,1.5-0.1,2.2c0.7,3.5,8.8,4.1,8.8,4.1c1.6,0.2-10.3-0.2-10.3-0.2s-4.4-2.1-4-5.6c0.2-1.1,0.8-2.2,1.8-2.8
			L1096.6,198.2z M1095.1,206.4c0,0,11.9-0.4,10.3-0.2c0,0-8.1,0.5-8.8,4.1c-0.2,0.7-0.2,1.5,0.1,2.2l-0.1,0.3l-3.6,2.1
			c-1-0.7-1.6-1.7-1.8-2.9C1090.7,208.5,1095.1,206.4,1095.1,206.4L1095.1,206.4z M1099.3,217.2L1099.3,217.2
			c0.5,0.6,1.2,1.1,1.9,1.2c3.4,1.1,7.9-5.6,7.9-5.6c1-1.3-5.3,8.8-5.3,8.8s-4,2.8-6.8,0.6c-0.9-0.7-1.4-1.8-1.6-2.9L1099.3,217.2z
			 M1105.5,222.5c0,0,5.6-10.5,5-9c0,0-3.6,7.2-0.9,9.7c0.5,0.6,1.2,0.9,2,1l0.3,0.4v4.1c-1.1,0.5-2.4,0.6-3.5,0.2
			C1105.1,227.4,1105.5,222.5,1105.5,222.5L1105.5,222.5z M1110.2,219.9c0,0,1.2,1.3,2.2,1.4c0.7,0.1,1.3-0.2,1.8-0.6
			c0.5,0.5,1.1,0.8,1.8,0.7c1-0.1,2.2-1.4,2.2-1.4s-0.4,2-2.1,2.2c-0.7,0.1-1.4-0.1-1.9-0.5c-0.5,0.4-1.2,0.6-1.9,0.5
			C1110.6,222,1110.3,220,1110.2,219.9L1110.2,219.9z M1117,224.2c0.7-0.1,1.4-0.5,1.9-1c2.7-2.4-0.9-9.7-0.9-9.7c-0.6-1.5,5,9,5,9
			s0.4,4.9-2.8,6.2c-1.1,0.4-2.2,0.4-3.2-0.1L1117,224.2z M1119.4,212.7c0,0,4.5,6.7,7.9,5.6c0.7-0.2,1.4-0.6,1.9-1.2l0.5-0.1l3.5,2
			c-0.1,1.2-0.7,2.4-1.6,3.1c-2.8,2.2-6.8-0.6-6.8-0.6S1118.4,211.5,1119.4,212.7L1119.4,212.7z M1131.9,212.5
			c0.3-0.7,0.3-1.5,0.1-2.2c-0.7-3.5-8.8-4.1-8.8-4.1c-1.6-0.2,10.3,0.2,10.3,0.2s4.4,2.1,4,5.6c-0.2,1.1-0.8,2.1-1.7,2.8
			L1131.9,212.5z M1133.5,204.4c0,0-11.9,0.4-10.3,0.2c0,0,8.1-0.5,8.8-4.1c0.2-0.7,0.2-1.5-0.1-2.2l0.1-0.3l3.6-2.1
			c1,0.7,1.6,1.8,1.9,2.9C1137.9,202.3,1133.5,204.4,1133.5,204.4L1133.5,204.4z M1129.2,193.7L1129.2,193.7
			c-0.5-0.6-1.2-1.1-1.9-1.2c-3.4-1.1-7.9,5.6-7.9,5.6c-1,1.3,5.3-8.8,5.3-8.8s4-2.8,6.8-0.6c0.9,0.7,1.4,1.8,1.6,2.9L1129.2,193.7z
			 M1122.8,169.7c0.6,0,1.2,0,1.8,0.2c0.6,0.2,1.2,0.4,1.8,0.7l-1.6,4.6c0,0-1.9-1.2-2.3-1.4
			C1122.6,172.5,1122.7,171.1,1122.8,169.7L1122.8,169.7z M1124.1,156.3c2.1-0.8,4.3-0.2,4.8,1.2c0.5,1.4-0.8,3.2-2.9,4
			c-2.1,0.8-4.3,0.2-4.8-1.2C1120.7,158.9,1121.9,157.1,1124.1,156.3L1124.1,156.3z M1112.9,146.4c0.2-1.5,0.7-3,1.4-4.4
			c0.7,1.4,1.1,2.9,1.3,4.5c0.1,1.6-0.4,3.1-1.3,4.4C1114.3,150.8,1112.7,148.7,1112.9,146.4z M1109.1,169.5
			c0.6-3.1,3.9-6.3,5.2-8.1c1.3,1.8,4.5,5,5.2,8.1c0.6,3.1-1.7,6.4-1.7,6.4c1.7-0.2,3.4,0.2,4.8,1.1c2.7,1.5,3.7,4.7,3.8,5.2
			l-0.5,1.3c0,0-2-5-4.7-6c-2.1-0.9-4.6-0.3-6.1,1.4c0-0.9,0.2-1.9,0.7-2.6c0.9-1.4,1.7-3.1,1.5-4.5c-0.5-3-3.1-5.5-3.1-5.5
			s-2.7,2.5-3.1,5.4c-0.2,1.4,0.6,3.1,1.5,4.5c0.5,0.8,0.8,1.7,0.7,2.6c-1.5-1.7-3.9-2.3-6-1.4c-2.7,1-4.7,6-4.7,6l-0.5-1.3
			c0.1-0.6,1.1-3.7,3.8-5.2c1.4-0.9,3.1-1.3,4.8-1.1C1110.8,175.9,1108.5,172.6,1109.1,169.5z M1106.1,173.8
			c-0.4,0.2-2.3,1.4-2.3,1.4l-1.6-4.6c0.6-0.3,1.2-0.6,1.8-0.7c0.6-0.2,1.2-0.2,1.8-0.2C1105.8,171,1105.9,172.4,1106.1,173.8z
			 M1099.7,157.5c0.5-1.4,2.7-1.9,4.8-1.2c2.1,0.7,3.4,2.6,2.9,4c-0.5,1.4-2.7,1.9-4.8,1.2S1099.2,158.9,1099.7,157.5z
			 M1099.2,172.8c0.4-0.5,0.9-0.9,1.4-1.3l2,4.8c-1,1.1-1.5,2.5-1.5,3.9l-3-5.7C1098.4,173.8,1098.7,173.3,1099.2,172.8z
			 M1094.3,164.3c1.2-3.7,4.5-1.6,3.6,0.9c-0.6,1.7-1.5,3.3-2.7,4.6C1095,169.7,1093.4,167.2,1094.3,164.3z M1093.6,176.1
			c0.7-0.2,1.3-0.2,2,0l3.4,5.4c-1.2-0.8-2.7-1-4.1-0.7l-3.1-4.2C1092.4,176.4,1093,176.2,1093.6,176.1z M1093.3,181.3
			c0,0-2,1-2.3,1.3c-1.1-0.9-2.2-1.7-3.4-2.3c0.3-0.5,0.6-1,1.1-1.4c0.4-0.5,1-0.9,1.5-1.2L1093.3,181.3z M1088.7,167.7
			c2.9,0.6,4.4,3.3,4.3,3.7c-1.8,0.3-3.6,0.3-5.3,0C1085,170.8,1084.9,166.8,1088.7,167.7L1088.7,167.7z M1076.6,172.3
			c0.4-2.2,1.9-3.8,3.4-3.5s2.4,2.3,2,4.5c-0.4,2.2-1.9,3.8-3.4,3.5C1077.2,176.5,1076.2,174.5,1076.6,172.3z M1085.8,183
			c3,1,4.7,4.6,4.7,4.6c0.7-1.6,1.8-2.8,3.3-3.6c2.6-1.6,5.9-0.9,6.4-0.6l0.9,1.1c0,0-5.3-0.8-7.5,1.1c-1.8,1.4-2.6,3.8-1.8,6
			c-0.8-0.4-1.5-1.1-1.9-1.9c-0.8-1.5-1.8-3.1-3.2-3.6c-2.9-1.1-6.3-0.1-6.3-0.1s0.8,3.5,3.1,5.4c1.2,0.9,3,1,4.7,1
			c0.9-0.1,1.9,0.2,2.7,0.6c-2.3,0.4-4,2.3-4.2,4.5c-0.5,2.8,2.9,7,2.9,7l-1.4-0.2c-0.4-0.4-2.7-2.8-2.6-5.8c0-1.7,0.5-3.4,1.5-4.7
			c0,0-4,0.3-6.4-1.8s-3.5-6.5-4.4-8.5C1078.4,183.2,1082.8,182,1085.8,183z M1082.9,214.2c-1.3,0.5-2.5,1.1-3.7,1.8
			c-0.3-0.5-0.6-1.1-0.7-1.6c-0.2-0.6-0.3-1.3-0.3-1.9l4.8-0.9C1082.9,211.5,1082.8,213.7,1082.9,214.2L1082.9,214.2z M1078.1,210.5
			c0-0.6,0.2-1.3,0.4-1.9c0.2-0.7,0.5-1.3,1-1.8l6.4-0.2c-1.3,0.7-2.2,1.9-2.7,3.2L1078.1,210.5z M1082.8,199.3l-4.8-0.9
			c0-0.6,0.1-1.3,0.3-1.9c0.1-0.6,0.4-1.1,0.7-1.6c1.2,0.7,2.4,1.3,3.7,1.8C1082.7,197.1,1082.8,199.3,1082.8,199.3z M1083.2,200.9
			c0.4,1.4,1.4,2.6,2.7,3.2l-6.4-0.2c-0.5-0.5-0.8-1.1-1-1.8c-0.2-0.6-0.4-1.2-0.4-1.9L1083.2,200.9z M1065.5,194
			c-1-1.2-0.4-3.3,1.3-4.7c1.7-1.4,3.9-1.6,4.9-0.5s0.4,3.3-1.4,4.7C1068.6,194.9,1066.5,195.1,1065.5,194z M1071.3,199.5
			c1.2,1.4,2.1,2.9,2.7,4.6c-0.3,0.2-3.3,0.3-5.3-1.9C1066.1,199.2,1069.5,197.4,1071.3,199.5L1071.3,199.5z M1071.7,221.9
			c-1,1.2-3.2,1-4.9-0.5c-1.7-1.4-2.3-3.6-1.3-4.7c1-1.2,3.2-1,4.9,0.5S1072.7,220.7,1071.7,221.9L1071.7,221.9z M1071.4,211.4
			c-1.8,2-5.3,0.2-2.6-2.7c2-2.2,5-2.1,5.3-1.9C1073.5,208.5,1072.6,210,1071.4,211.4L1071.4,211.4z M1080,241.8
			c-1.5,0.3-3-1.3-3.4-3.5c-0.4-2.2,0.5-4.2,2-4.5s3,1.3,3.4,3.5C1082.4,239.6,1081.5,241.6,1080,241.8L1080,241.8z M1076.2,227.4
			c0.9-2,2.1-6.5,4.5-8.5c2.4-2,6.4-1.8,6.4-1.8c-1-1.4-1.5-3-1.5-4.7c0.1-2.2,1-4.3,2.6-5.8l1.4-0.2c0,0-3.3,4.2-2.9,7
			c0.3,2.3,2,4.1,4.2,4.5c-0.8,0.5-1.7,0.7-2.7,0.7c-1.7,0-3.6,0-4.7,1c-2.4,1.9-3.2,5.4-3.2,5.4s3.5,1.1,6.2,0
			c1.4-0.5,2.4-2.1,3.2-3.6c0.4-0.8,1.1-1.5,1.9-1.9c-0.8,2.2,0,4.6,1.8,6c2.2,1.8,7.5,1.1,7.5,1.1l-0.9,1.1
			c-0.5,0.2-3.8,0.9-6.4-0.6c-1.5-0.8-2.7-2.1-3.3-3.7c0,0-1.8,3.6-4.7,4.6S1078.4,227.7,1076.2,227.4L1076.2,227.4z M1093.3,229.6
			l-3.2,3.7c-0.6-0.3-1.1-0.7-1.5-1.2c-0.4-0.4-0.8-0.9-1.1-1.4c1.2-0.7,2.3-1.5,3.4-2.4C1091.3,228.6,1093.3,229.6,1093.3,229.6
			L1093.3,229.6z M1088.6,243.3c-3.8,0.9-3.7-3-1-3.6c1.8-0.3,3.6-0.3,5.3,0C1093,240,1091.6,242.6,1088.6,243.3L1088.6,243.3z
			 M1093.6,234.8c-0.6-0.1-1.3-0.3-1.8-0.6l3.1-4.1c1.4,0.3,2.9,0.1,4.1-0.7l-3.4,5.4C1094.9,235,1094.2,235,1093.6,234.8
			L1093.6,234.8z M1094.4,246.5c-0.9-2.8,0.6-5.4,1-5.6c1.2,1.4,2.1,2.9,2.7,4.6C1098.9,248.1,1095.6,250.2,1094.4,246.5z
			 M1098.2,236.3l3-5.7c0,1.4,0.5,2.8,1.5,3.9l-2,4.8c-0.5-0.4-1-0.8-1.4-1.3C1098.8,237.5,1098.4,236.9,1098.2,236.3L1098.2,236.3z
			 M1105.8,241.1c-0.6,0-1.2,0-1.8-0.2c-0.6-0.2-1.2-0.4-1.8-0.7l1.6-4.6c0,0,1.9,1.2,2.3,1.4
			C1105.9,238.4,1105.8,239.7,1105.8,241.1L1105.8,241.1z M1104.4,254.5c-2.1,0.8-4.2,0.2-4.8-1.2c-0.5-1.4,0.7-3.2,2.9-4
			c2.1-0.8,4.2-0.2,4.8,1.2C1107.8,251.9,1106.5,253.7,1104.4,254.5z M1115.7,264.5c-0.2,1.5-0.7,3-1.4,4.4
			c-0.7-1.4-1.1-2.9-1.3-4.5c-0.1-1.6,0.4-3.1,1.3-4.4C1114.2,260.1,1115.9,262.1,1115.7,264.5L1115.7,264.5z M1119.5,241.4
			c-0.6,3.1-3.9,6.3-5.2,8.1c-1.3-1.8-4.5-5-5.1-8.1c-0.6-3.1,1.6-6.4,1.6-6.4c-1.7,0.2-3.4-0.2-4.8-1.1c-2.7-1.5-3.7-4.7-3.8-5.2
			l0.5-1.3c0,0,2,5,4.7,6c2.1,0.9,4.6,0.3,6.1-1.4c0,0.9-0.2,1.9-0.7,2.6c-0.9,1.4-1.7,3.1-1.5,4.5c0.5,3,3.1,5.5,3.1,5.5
			s2.7-2.5,3.1-5.4c0.2-1.4-0.6-3.1-1.5-4.5c-0.5-0.8-0.8-1.7-0.7-2.7c1.5,1.7,3.9,2.3,6.1,1.4c2.7-1,4.7-6,4.7-6l0.5,1.3
			c-0.1,0.6-1.1,3.7-3.8,5.2c-1.4,0.9-3.1,1.3-4.8,1.1C1117.8,234.9,1120.1,238.3,1119.5,241.4L1119.5,241.4z M1122.5,237.1
			c0.4-0.2,2.3-1.4,2.3-1.4l1.6,4.6c-0.6,0.3-1.2,0.6-1.8,0.7c-0.6,0.2-1.2,0.2-1.8,0.2C1122.8,239.8,1122.7,238.5,1122.5,237.1
			L1122.5,237.1z M1128.7,253.3c-0.5,1.4-2.7,1.9-4.8,1.2c-2.1-0.7-3.4-2.6-2.9-4s2.7-1.9,4.8-1.2
			C1127.9,250,1129.2,251.8,1128.7,253.3L1128.7,253.3z M1129.4,238.1c-0.4,0.5-0.9,0.9-1.4,1.3l-2-4.8c1-1.1,1.5-2.5,1.5-3.9l3,5.7
			C1130.2,237,1129.9,237.6,1129.4,238.1L1129.4,238.1z M1134.2,246.6c-1.2,3.7-4.5,1.6-3.6-0.9c0.6-1.7,1.5-3.3,2.6-4.6
			C1133.5,241.1,1135.1,243.7,1134.2,246.6L1134.2,246.6z M1135,234.8c-0.7,0.2-1.4,0.2-2,0l-3.4-5.4c1.2,0.8,2.7,1,4.1,0.7l3.1,4.1
			C1136.2,234.4,1135.6,234.6,1135,234.8L1135,234.8z M1135.2,229.6c0,0,2-1,2.4-1.3c1.1,0.9,2.2,1.7,3.4,2.3
			c-0.3,0.5-0.6,1-1.1,1.4c-0.4,0.5-1,0.9-1.5,1.2L1135.2,229.6z M1139.9,243.2c-2.9-0.6-4.3-3.3-4.3-3.7c1.8-0.3,3.6-0.3,5.3,0
			C1143.5,240.1,1143.7,244,1139.9,243.2L1139.9,243.2z M1151.8,238.5c-0.4,2.2-1.9,3.8-3.4,3.5c-1.5-0.3-2.4-2.3-2-4.5
			c0.4-2.2,1.9-3.8,3.4-3.5C1151.2,234.2,1152.2,236.2,1151.8,238.5L1151.8,238.5z M1142.8,227.8c-3-1-4.7-4.6-4.7-4.6
			c-0.7,1.6-1.8,2.8-3.3,3.6c-2.6,1.6-5.9,0.9-6.4,0.6l-0.8-1.1c0,0,5.3,0.8,7.5-1.1c1.8-1.4,2.6-3.8,1.8-6c0.8,0.4,1.5,1.1,1.9,1.9
			c0.8,1.5,1.8,3.1,3.2,3.6c2.9,1.1,6.3,0.1,6.3,0.1s-0.8-3.5-3.1-5.4c-1.1-0.9-3-1-4.7-1c-0.9,0.1-1.9-0.2-2.7-0.6
			c2.3-0.4,4-2.3,4.3-4.5c0.5-2.8-2.9-7-2.9-7l1.4,0.2c0.4,0.4,2.7,2.8,2.6,5.8c0,1.7-0.5,3.4-1.5,4.7c0,0,4-0.3,6.4,1.8
			c2.4,2,3.5,6.5,4.4,8.5C1150.2,227.7,1145.7,228.9,1142.8,227.8L1142.8,227.8z M1145.7,196.7c1.3-0.5,2.5-1.1,3.7-1.8
			c0.3,0.5,0.6,1.1,0.7,1.6c0.2,0.6,0.3,1.3,0.3,1.9l-4.8,0.9C1145.7,199.3,1145.8,197.1,1145.7,196.7L1145.7,196.7z M1150.4,200.3
			c0,0.6-0.2,1.3-0.4,1.9c-0.2,0.7-0.5,1.3-1,1.8l-6.4,0.2c1.3-0.7,2.2-1.9,2.7-3.2L1150.4,200.3z M1145.7,211.5l4.8,0.9
			c0,0.6-0.1,1.3-0.3,1.9c-0.1,0.6-0.4,1.1-0.7,1.6c-1.2-0.7-2.4-1.3-3.7-1.8C1145.9,213.7,1145.7,211.5,1145.7,211.5L1145.7,211.5z
			 M1145.4,209.9c-0.4-1.4-1.4-2.6-2.7-3.2l6.4,0.2c0.5,0.5,0.8,1.1,1,1.8c0.2,0.6,0.4,1.2,0.4,1.9L1145.4,209.9z M1148,192
			c-2.4,2-6.4,1.8-6.4,1.8c1,1.4,1.5,3,1.5,4.7c-0.1,2.2-1,4.3-2.6,5.8l-1.4,0.2c0,0,3.3-4.2,2.9-7c-0.3-2.3-2-4.1-4.2-4.5
			c0.8-0.5,1.7-0.7,2.6-0.7c1.7,0,3.6,0,4.7-1c2.4-1.9,3.2-5.4,3.2-5.4s-3.5-1.1-6.2,0c-1.3,0.5-2.4,2.1-3.2,3.6
			c-0.4,0.8-1.1,1.5-1.9,1.9c0.8-2.2,0-4.6-1.8-6c-2.2-1.8-7.5-1-7.5-1l0.9-1.1c0.5-0.2,3.8-0.9,6.4,0.6c1.5,0.8,2.7,2.1,3.3,3.6
			c0,0,1.8-3.6,4.7-4.6c3-1,7.4,0.2,9.6,0.5C1151.5,185.5,1150.3,189.9,1148,192L1148,192z M1157.1,199.5c1.8-2,5.3-0.2,2.6,2.7
			c-2,2.2-5,2.1-5.3,1.9C1155.1,202.4,1156,200.8,1157.1,199.5z M1154.5,206.8c0.3-0.2,3.3-0.3,5.3,1.9c2.6,2.9-0.8,4.7-2.6,2.7
			C1156.1,210,1155.1,208.5,1154.5,206.8L1154.5,206.8z M1156.7,222c-1-1.2-0.4-3.3,1.3-4.7c1.7-1.4,3.9-1.6,4.9-0.5
			c1,1.2,0.4,3.3-1.3,4.7C1159.9,223,1157.6,223.2,1156.7,222L1156.7,222z M1166.1,233.8c1.2,0.9,2.3,2.1,3.1,3.4
			c-1.6-0.1-3.1-0.5-4.5-1.1c-1.4-0.7-2.5-1.9-3.1-3.3C1161.6,232.7,1164.2,232.4,1166.1,233.8L1166.1,233.8z"/>
	</g>
</g>
<g id="Layer_2_00000174596959970498044120000010271583946860458889_">
	<g id="Layer_1-2_00000130635240047977548320000012945990513489534346_">
		<path class="st0" d="M1172.7,602l11.1,39.8l40.7,6.7l-4.9-40.8l-38.7-13.2l28.6-3.9l15.6,17.2l4.7-4.3l-12.7-14l10-1.4l-1.3-9.4
			l-54.2,7.4l-11.1-11.6l34.2,2.7l0.7-9.5l-44.7-3.5l-4.1-4.4l17.3-5.9l-11.7-13.9l6.1-1.5l39.4,21.3l4.5-8.4l-30.1-16.3l15.6-3.8
			l41.5,35.6l6.2-7.2l-7.7-6.5l18.3-4.9l-1.6-6.1l-22.5,5.9l-22.2-19.1l40,10.3l26.2-31.9l-37.7-16.1l-30.8,26.8l10.9-26.7l22.7-5
			l-1.4-6.2l-18.4,4l3.8-9.3l-8.8-3.6l-20.7,50.6l-15.7,3.8l19.4-28.3l-7.8-5.4l-25.4,37l-6.1,1.5l4-17.7l-18,2.7l1.7-5.8l38.2-23.5
			l-4.9-8.1l-29.2,17.9l4.6-15.4l51.6-18.1l-3.2-9l-9.5,3.4l4.9-18.2l-6.1-1.7l-6.1,22.4l-27.6,9.7l28.9-29.5l-14.5-38.6l-32.9,24.7
			l8,40.1l-17.7-22.8l7.1-22.1l-6-1.9l-5.7,18l-6.2-8l-7.6,5.8l33.6,43.2l-4.6,15.4l-14.8-30.9l-8.5,4.1l19.3,40.4l-1.7,5.8
			l-13.7-12l-6.2,17l-4.3-4.5l-1.2-44.8l-9.5,0.3l0.9,34.3l-11.1-11.6l10-53.8l-9.3-1.7l-1.9,9.9l-13.2-13.4l-4.5,4.5l16.3,16.5
			l-5.4,28.8l-11.1-39.8l-40.7-6.7l4.9,40.8l38.7,13.2l-28.6,3.9l-15.6-17.2l-4.7,4.2l12.7,14l-10,1.4l1.3,9.4l54.2-7.4l11.1,11.6
			l-34.2-2.7l-0.7,9.5l44.7,3.5l4.2,4.4l-17.3,5.9l11.7,13.9l-6.1,1.5l-39.4-21.3l-4.5,8.4l30.1,16.4l-15.6,3.8l-41.5-35.7l-6.2,7.2
			l7.6,6.5l-18.2,4.9l1.6,6.1l22.5-5.9l22.2,19.1l-40-10.3l-26.2,31.9l37.7,16.1l30.7-26.9l-10.9,26.8l-22.7,5l1.4,6.2l18.4-4.1
			l-3.8,9.3l8.8,3.6l20.8-50.6l15.6-3.8l-19.4,28.3l7.8,5.4l25.4-37l5.9-1.4l-3.6,17.9l17.9-3.1l-1.8,6l-38.2,23.5l4.9,8.1
			l29.2-17.9l-4.5,15.4l-51.6,18.1l3.2,9l9.5-3.3l-4.9,18.2l6.1,1.7l6.1-22.4l27.7-9.7l-28.9,29.5l14.5,38.6l32.8-24.7l-8-40.1
			l17.7,22.8l-7.1,22.1l6,1.9l5.7-18l6.2,8l7.6-5.8l-33.5-43.2l4.5-15.4l14.8,30.9l8.5-4.1l-19.3-40.5l1.7-5.7l13.7,12l6.2-17
			l4.3,4.5l1.2,44.8l9.5-0.3l-1-34.3l11.1,11.7l-10.1,53.8l9.3,1.7l1.9-9.9l13.3,13.4l4.5-4.5l-16.3-16.5L1172.7,602z M1204.2,617.5
			l-10.6-4.6l0.1-0.1l-5.5-5.8l22.8,7.7l2.7,22.3l-22.3-3.6l-6.5-23.4l5.6,5.9l0-0.1l4,10.7l12.2,3.3L1204.2,617.5z M1230,502.6
			l20.6,8.8l-14.3,17.4l-23.5-6l8-1.9l0-0.1l11.3,1.9l8.9-8.9l-11.9-4l-9.4,6.9l0-0.1l-7.8,1.9L1230,502.6z M1042.4,466.9l10.6,4.6
			l0,0.1l5.5,5.8l-22.8-7.7l-2.7-22.3l22.3,3.6l6.5,23.4l-5.7-5.9l0,0.1l-4.1-10.7l-12.2-3.3L1042.4,466.9z M1016.7,581.8l-20.6-8.9
			l14.3-17.4l23.5,6l-7.9,1.9l0,0.1l-11.3-1.9l-8.9,8.9l11.9,3.9l9.3-6.9l0,0.1l7.9-1.9L1016.7,581.8z M1142.3,430.1l18-13.5
			l7.9,21.1l-16.9,17.4l2.3-7.8l-0.1,0l7.2-8.9l-3.2-12.2l-9.4,8.3l1.3,11.5l-0.1,0l-2.3,7.7L1142.3,430.1z M1115.8,510.9l9.4,8.3
			l-1.5,5l-5.7-4.6l-3.4,6.6l-3.2-3.4L1115.8,510.9z M1105.2,541.7l-4.7,1.1l-8.1-9.7l11.9-4l3.6,3.8l-6.7,2.6L1105.2,541.7z
			 M1100,564.4l2.4-12.3l5-1.2l-1.1,7l7.4-0.4l-1.4,4.6L1100,564.4z M1104.2,654.3l-18,13.5l-7.9-21.1l17.1-17.3l-2.3,7.8l0.1,0
			l-7.3,8.8l3.3,12.2l9.3-8.3l-1.4-11.5l0.1,0l2.3-7.7L1104.2,654.3z M1121.1,549.6c-4.1-1.2-6.4-5.5-5.2-9.6s5.5-6.4,9.6-5.2
			c4.1,1.2,6.4,5.5,5.2,9.6l0,0C1129.5,548.5,1125.2,550.8,1121.1,549.6z M1131,573.5l-9.4-8.3l1.5-5l5.6,4.5l3.4-6.6l3.4,3.5
			L1131,573.5z M1139.1,533.5l1.1-7.2l-7.3,0.3l1.4-4.8l12.5-1.8l-2.8,12.4L1139.1,533.5z M1142.4,555.3l-3.6-3.8l6.7-2.6l-4-6.2
			l4.6-1.1l8.1,9.7L1142.4,555.3z"/>
	</g>
</g>
<g id="Layer_2_00000069362753626314593810000012659961366608652945_">
	<g id="Layer_1-2_00000155112911762187668160000011943717723986324622_">
		<path class="st0" d="M456.7,29l5.9,21.1l21.6,3.6L481.6,32l-20.6-7l15.2-2.1l8.3,9.1l2.5-2.3l-6.7-7.4l5.3-0.7l-0.7-5l-28.8,3.9
			l-5.9-6.2l18.2,1.4l0.4-5l-23.7-1.9l-2.2-2.3l9.2-3.1l-6.2-7.4l3.2-0.8L470,6.6l2.4-4.4l-16-8.7l8.3-2l22.1,18.9l3.3-3.8L486,3.2
			l9.7-2.6l-0.9-3.3l-11.9,3.2L471.1-9.7l21.2,5.5l13.9-16.9l-20.1-8.6l-16.4,14.2l5.8-14.2l12.1-2.7l-0.7-3.3l-9.8,2.1l2-4.9
			l-4.7-1.9l-11,26.9l-8.3,2l10.3-15l-4.2-2.9L447.9-9.6l-3.2,0.8l2.1-9.4l-9.6,1.4l0.9-3.1l20.3-12.5l-2.6-4.3l-15.5,9.5l2.4-8.2
			l27.4-9.6l-1.7-4.8l-5,1.8l2.6-9.7l-3.2-0.9l-3.2,11.9l-14.7,5.1l15.3-15.7l-7.7-20.5L435-64.5l4.2,21.3l-9.4-12.1l3.8-11.7
			l-3.2-1l-3,9.6l-3.3-4.2l-4,3.1l17.8,22.9l-2.4,8.2L427.6-45l-4.5,2.2l10.2,21.5l-0.9,3.1l-7.3-6.4l-3.3,9.1l-2.3-2.4l-0.7-23.8
			l-5,0.1l0.5,18.2l-5.9-6.2l5.3-28.6l-5-0.9l-1,5.3l-7-7.1l-2.4,2.4l8.7,8.8l-2.9,15.3l-5.9-21.2l-21.6-3.6l2.6,21.7l20.6,7
			l-15.2,2.1l-8.3-9.1l-2.5,2.2l6.7,7.4l-5.3,0.7l0.7,5l28.8-3.9l5.9,6.2l-18.2-1.4l-0.4,5l23.7,1.9l2.2,2.3l-9.2,3.1l6.2,7.4
			l-3.2,0.8l-20.9-11.3l-2.4,4.4l16,8.7l-8.3,2l-22.1-19l-3.3,3.8l4.1,3.5l-9.7,2.6l0.9,3.3L378-6.1l11.8,10.1l-21.2-5.5l-13.9,17
			l20.1,8.6L391,9.8L385.3,24l-12.1,2.7l0.7,3.3l9.8-2.2l-2,4.9l4.7,1.9l11-26.9l8.3-2l-10.3,15l4.2,2.9L413,4l3.1-0.7l-1.9,9.5
			l9.5-1.7l-0.9,3.2l-20.3,12.5l2.6,4.3l15.5-9.5l-2.4,8.2l-27.4,9.6l1.7,4.8l5-1.8l-2.6,9.7l3.2,0.9l3.2-11.9l14.7-5.2l-15.4,15.7
			l7.7,20.5l17.4-13.1l-4.2-21.3l9.4,12.1l-3.7,11.7l3.2,1l3-9.5l3.3,4.2l4-3.1l-17.8-23l2.4-8.2l7.9,16.4l4.5-2.2l-10.3-21.5l0.9-3
			l7.3,6.4l3.3-9.1l2.3,2.4l0.7,23.8l5-0.1l-0.5-18.2l5.9,6.2l-5.4,28.6l5,0.9l1-5.3l7.1,7.1l2.4-2.4l-8.7-8.8L456.7,29z
			 M473.4,37.2l-5.6-2.4l0.1,0l-2.9-3.1l12.1,4.1l1.4,11.8l-11.8-1.9l-3.5-12.4l3,3.1l0-0.1l2.1,5.7l6.5,1.7L473.4,37.2z
			 M487.1-23.8l11,4.7l-7.6,9.3l-12.5-3.2l4.2-1l0-0.1l6,1l4.7-4.7l-6.3-2.1l-5,3.6l0-0.1l-4.2,1L487.1-23.8z M387.5-42.8l5.6,2.4
			l0,0.1l2.9,3.1l-12.1-4.1l-1.5-11.8l11.8,1.9l3.5,12.4l-3-3.2l0,0.1l-2.2-5.7l-6.5-1.7L387.5-42.8z M373.8,18.2l-11-4.7l7.6-9.3
			l12.5,3.2l-4.2,1l0,0.1l-6-1l-4.7,4.7l6.3,2.1l4.9-3.7l0,0.1l4.2-1L373.8,18.2z M440.5-62.4l9.5-7.1l4.2,11.2l-9,9.2l1.2-4.2
			l-0.1,0l3.8-4.7l-1.7-6.5l-5,4.4l0.7,6.1l-0.1,0l-1.2,4.1L440.5-62.4z M426.4-19.4l5,4.4l-0.8,2.6l-3-2.5l-1.8,3.5l-1.7-1.8
			L426.4-19.4z M420.8-3.1l-2.5,0.6L414-7.7l6.3-2.2l1.9,2l-3.6,1.4L420.8-3.1z M418,9l1.3-6.5l2.6-0.6l-0.6,3.7l4-0.2l-0.7,2.4
			L418,9z M420.3,56.8l-9.5,7.2l-4.2-11.2l9.1-9.2l-1.2,4.2l0.1,0l-3.9,4.7l1.7,6.5l5-4.4l-0.7-6.1l0.1,0l1.2-4.1L420.3,56.8z
			 M429.3,1.1c-2.2-0.6-3.4-2.9-2.8-5.1c0.6-2.2,2.9-3.4,5.1-2.8s3.4,2.9,2.8,5.1l0,0C433.7,0.5,431.5,1.8,429.3,1.1z M434.5,13.8
			l-5-4.4l0.8-2.6l3,2.4l1.8-3.5l1.8,1.9L434.5,13.8z M438.8-7.4l0.6-3.8l-3.9,0.2l0.7-2.5l6.6-1L441.4-8L438.8-7.4z M440.6,4.2
			l-1.9-2l3.6-1.4l-2.1-3.3l2.5-0.6l4.3,5.2L440.6,4.2z"/>
	</g>
</g>
<g id="Layer_2_00000011729856271435241510000013473020036267014070_">
	<g id="Layer_1-2_00000094584407873020564040000016727196456360745404_">
		<path class="st0" d="M76.3,511.7l15.6,24.9l29.1-3.6l-11.6-26.9l-29.1-1.2l18.8-8.4l14.1,8.6l2.3-3.9l-11.5-7l6.5-2.9l-2.8-6.2
			l-35.5,15.9l-9.9-5.7l23.8-5.1l-1.4-6.6l-31.2,6.6l-3.7-2.1l10.6-7.5l-10.8-7.1l3.8-2.2l31.2,6.6l1.4-6.6l-23.8-5.1l9.9-5.7
			l35.5,15.9l2.8-6.2l-6.5-2.9l11.5-7l-2.3-3.9l-14.1,8.6l-19-8.5l29.3-1l11.4-27l-29-3.4l-15.6,24.5l2.1-20.4l14.5-8l-2.2-4
			L79,423.8l0.7-7.1l-6.7-0.7l-3.9,38.7l-9.9,5.8l7.5-23.2l-6.4-2.1l-9.9,30.3l-3.8,2.2l-0.8-12.9L34,460.3V456l21.3-23.7l-5-4.5
			L34,445.9v-11.5l31.6-22.8l-4-5.5l-5.8,4.2L55.5,397l-4.5,0.1l0.4,16.5l-16.9,12.2l13.8-25.9l-17.7-23.4L13,399.9l13.5,25.7
			l-16.7-12l0.4-16.5L5.7,397l-0.3,13.4l-5.8-4.2l-4,5.5l31.6,22.7v11.5l-16.3-18.1l-5,4.5L27.2,456v4.3l-11.8-5.4l-0.8,12.9
			l-3.9-2.2l-9.9-30.3l-6.4,2.1L2,460.4l-9.9-5.7l-4-38.7l-6.7,0.7l0.7,7.1l-11.7-6.4l-2.2,3.9l14.5,8l2.1,20.8l-15.6-24.9
			l-29.1,3.6l11.6,26.9l29.1,1.2l-18.7,8.4l-14.1-8.6l-2.3,3.8l11.5,7l-6.5,2.9l2.8,6.2l35.5-16l9.9,5.7l-23.9,5.1l1.4,6.6l31.2-6.6
			l3.7,2.1L0.5,481l10.8,7.1l-3.9,2.2l-31.2-6.6l-1.4,6.6l23.8,5.1l-9.9,5.7l-35.5-16l-2.8,6.2l6.5,2.9l-11.5,7l2.3,3.9l14.1-8.6
			l19,8.5l-29.3,1l-11.4,27l29,3.4l15.6-24.6l-2.1,20.5l-14.5,8l2.2,4l11.7-6.5l-0.7,7.1l6.7,0.7l4-38.7l9.9-5.7l-7.6,23.2l6.4,2.1
			l9.9-30.3l3.7-2.1l1.2,12.9l11.6-5.7v4.5L5.9,529.4l5,4.5l16.3-18.1v11.4L-4.3,550l4,5.5l5.8-4.2l0.3,13.4l4.5-0.1l-0.4-16.5
			l16.9-12.2L13,561.8l17.7,23.4l17.4-23.4l-13.5-25.7l16.7,12l-0.4,16.5l4.5,0.1l0.3-13.4l5.8,4.2l4-5.5L34,527.2v-11.4l16.3,18.1
			l5-4.5L34,505.7v-4.2l11.8,5.4l0.8-12.9l3.8,2.2l9.9,30.3l6.4-2.1l-7.6-23.2L69,507l3.9,38.7l6.7-0.7l-0.7-7.1l11.8,6.5l2.2-4
			l-14.5-8L76.3,511.7z M100.9,515.9l-8.2-1l0.1-0.1l-4.9-2.9l17.1,0.7l6.3,14.7l-15.9,2l-9.2-14.6l5,2.9v-0.1l4.9,6.5l9-0.2
			L100.9,515.9z M95.4,432.3l15.9,1.9L105,449l-17.3,0.6l5.1-2.9l-0.1-0.1l8.1-1l4.3-7.9l-8.9-0.3l-5,6.6v-0.1l-4.9,2.9L95.4,432.3z
			 M-39.7,445.7l8.1,1v0.1l5,2.9l-17.1-0.7l-6.4-14.7l15.9-2L-25,447l-5-2.9v0.1l-4.9-6.5l-9,0.2L-39.7,445.7z M-34.2,529.3
			l-15.9-1.9l6.3-14.8l17.3-0.6l-5,2.9v0.1l-8.1,1l-4.3,7.9l8.9,0.3l4.9-6.6v0.1l5-2.9L-34.2,529.3z M21,400.5l9.6-12.8l9.7,12.8
			l-8.1,15.3v-5.8H32l3.1-7.5l-4.7-7.7l-4.7,7.6l3.2,7.6h-0.1v5.7L21,400.5z M19.1,461l8.1,3.7v3.7l-4.8-2l-1,5.2l-2.8-1.7L19.1,461
			z M18.1,484.2l-3,1.7l-7.5-5l7.3-5.1l3.2,1.8l-4.1,3.2L18.1,484.2z M19.1,500.7l-0.8-8.9l3.1-1.8l0.7,5l5-1.8v3.4L19.1,500.7z
			 M40.1,561.2L30.6,574l-9.7-12.8l8.2-15.3v5.8h0.1l-3.2,7.5l4.7,7.7l4.7-7.6l-3.3-7.6h0.1V546L40.1,561.2z M30.6,486.3
			c-3,0-5.5-2.5-5.5-5.5s2.5-5.5,5.5-5.5s5.5,2.5,5.5,5.5l0,0C36.1,483.9,33.6,486.3,30.6,486.3z M42.1,500.7l-8.1-3.7v-3.7l4.7,1.9
			l1-5.2l3,1.7L42.1,500.7z M39.6,471.7l-0.7-5.2l-4.9,1.7v-3.5l8.2-3.7l0.6,9L39.6,471.7z M46.2,486l-3.2-1.9l4.1-3.2l-4-3.4
			l2.9-1.7l7.5,5L46.2,486z"/>
	</g>
</g>
<g id="Layer_2_00000088813675004820877750000011591867485101111225_">
	<g id="Layer_1-2_00000128451554958738759850000003913985459294664124_">
		<path class="st0" d="M976.3,302.8l-9.8,3.1l5-5.1l-0.9-0.9l-0.9-0.9l0,0l0,0l-8.4,8.7l-6.3,2l7.4-9.8l-2.1-1.6l-9.6,12.8l-3.6,1.2
			l1.1-4.6l4.5-1.6l-0.7-1.9l-3.2,1.2l0.7-2.8c1.9,0.7,3.9-0.3,4.6-2.2c0.3-0.9,0.3-1.9-0.1-2.8l4.9-2.6l3.5-8.3l-8.2,4l-1.9,5.2
			c-1.8-0.8-3.9-0.1-4.8,1.8c-0.5,1-0.4,2.2,0.1,3.1l-2.7,0.9l0.9-3.3l-2-0.5l-1.2,4.6l-4.5,1.5l0.8-3.7l11.8-10.7l-1.8-2l-9.1,8.2
			l1.4-6.5l7.9-9.2l0,0l-1-0.9l-1-0.9l-4.7,5.4l2.2-10.1l-3-0.7l-2.2,10.1l-1.9-6.9l0,0l0,0l-1.3,0.4l-1.3,0.4l3.3,11.7l-1.4,6.5
			l-4.8-11.3l-2.4,1l6.2,14.7l-0.8,3.6l-3.4-3.2l0.8-4.6l-2-0.4l-0.6,3.3l-2.2-2c1.5-1.3,1.8-3.5,0.5-5.1c-0.6-0.8-1.5-1.2-2.5-1.3
			l0.2-5.4l-5.4-7.2l-0.6,9.1l3.5,4.2c-1.6,1.2-2,3.4-0.8,5c0.6,0.9,1.7,1.5,2.8,1.5l-0.6,2.9l-2.4-2.4l-1.4,1.4l3.4,3.4l-0.9,4.6
			l-2.8-2.6l-3.4-15.6l-2.6,0.6l2.6,12l-4.9-4.5l-4-11.4l-1.2,0.4l-1.2,0.4l0,0l0,0l2.4,6.7l-7.6-7l-2.1,2.2l7.6,7l-7-1.8l0,0
			l-0.3,1.3l-0.3,1.3l11.8,3l4.9,4.5l-12.2-1.5l-0.3,2.6l15.9,1.9l2.8,2.6l-4.5,1.3l-3.7-3.1l-1.3,1.5l2.6,2.2l-2.9,0.8
			c-0.3-2-2.1-3.3-4.1-3c-1,0.1-1.9,0.7-2.5,1.6l-4.6-2.9l-8.9,1.1l7.6,5.1l5.3-0.9c0.2,2,2,3.4,4,3.2c1.1-0.1,2-0.7,2.6-1.6l2.2,2
			l-3.3,0.9l0.5,2l4.5-1.2l3.5,3.1l-3.5,1.1l-15.2-4.9l-0.8,2.5l11.7,3.8l-6.3,2l-11.9-2.2l0,0l-0.2,1.3l-0.3,1.3l7.1,1.3l-9.8,3.1
			l0.9,2.9l9.8-3.1l-5,5.2l0.9,0.9l1,0.9l0,0l8.4-8.7l6.3-2l-7.4,9.8l2.1,1.6l9.6-12.8l3.6-1.2l-1.1,4.6l-4.5,1.6l0.7,1.9l3.2-1.2
			l-0.7,2.9c-1.8-0.8-3.9,0.1-4.7,2c-0.4,1-0.3,2.1,0.1,3l-4.8,2.5l-3.5,8.3l8.2-4l1.9-5.2c1.8,0.8,3.9-0.1,4.7-1.9
			c0.4-1,0.4-2-0.1-3l2.8-1l-0.9,3.3l2,0.5l1.2-4.6l4.5-1.5l-0.8,3.7l-11.9,10.7l1.8,2l9.1-8.2l-1.4,6.5l-7.8,9.2l0,0l0,0l1,0.9
			l1,0.9l4.7-5.5l-2.2,10.1l3,0.7l2.2-10.1l2,6.9l1.3-0.4l1.3-0.4l0,0l-3.3-11.7l1.4-6.5l4.8,11.3l2.4-1l-6.2-14.7l0.8-3.6l3.4,3.2
			l-0.8,4.6l2,0.4l0.6-3.3l2.1,2c-1.6,1.2-1.8,3.5-0.6,5.1c0.7,0.8,1.6,1.3,2.7,1.4l-0.2,5.5l5.4,7.2l0.6-9.1l-3.5-4.3
			c1.6-1.2,1.9-3.5,0.7-5c-0.6-0.8-1.6-1.3-2.6-1.4l0.6-2.9l2.4,2.4l1.4-1.4l-3.4-3.4l0.9-4.6l2.8,2.5l3.4,15.6l2.6-0.6l-2.6-12
			l4.9,4.5l4,11.4l1.2-0.4l1.2-0.4l0,0l-2.4-6.8l7.6,7l2.1-2.2l-7.7-7l6.9,1.7l0,0l0,0l0.3-1.3l0.3-1.3l-11.8-3l-4.9-4.5l12.2,1.5
			l0.3-2.6l-15.8-1.9l-2.8-2.6l4.5-1.3l3.6,3.1l1.3-1.5l-2.6-2.2l2.7-0.8c0.3,2,2.2,3.3,4.1,3c1-0.2,1.9-0.7,2.4-1.6l4.7,2.9
			l8.9-1.1l-7.6-5.1l-5.5,0.9c-0.2-2-2-3.4-4-3.2c-1.1,0.1-2,0.7-2.6,1.6l-2.1-1.9l3.3-0.9l-0.5-2l-4.5,1.2l-3.5-3.1l3.5-1.1
			l15.2,4.9l0.8-2.5l-11.7-3.8l6.3-2l11.9,2.2l0.2-1.3l0.2-1.3l0,0l0,0l-7-1.3l9.8-3.1L976.3,302.8z M955.4,291.9l3.1-1.5l-1.4,3.2
			l-3,1.6L955.4,291.9z M899.2,311.9l-2.9-2l3.4-0.4l2.9,1.8L899.2,311.9z M910.8,344.3l-3.1,1.5l1.4-3.2l3-1.6L910.8,344.3z
			 M966.9,324.3l2.9,2l-3.4,0.4l-2.9-1.8L966.9,324.3z M945.6,319.7l-1.9-1.8l-2.4,0.8l-3.2-0.7l6.3-2l5.1,4.5L945.6,319.7z
			 M926.4,323.6l-2,0.6l-0.6,2.2l-2.6,2.9l1.6-6.4l6-1.9L926.4,323.6z M943.4,313.2l-6.3,2l2.4-2.6l2.2-0.7l0.7-2.5l2.6-2.9
			L943.4,313.2z M937,307.4l6.3-2.2l-2.6,2.9l-2.3,0.7l-0.4,2.4l-2.2,2.4L937,307.4z M934.1,306.6l-1.5,6.6l-1.1-3.3l0.5-2.3
			l-1.8-1.9l-1.2-3.8L934.1,306.6z M921.7,282.2l2.1,2.8l-0.1,3.4l-2.2-2.7L921.7,282.2z M927,302.8l1.2,3.7l-0.6,2.4l1.8,1.6l1,3.1
			l-4.7-4.3L927,302.8z M923.7,311.6l4.8,4.4l-3.4-0.8l-1.7-1.5l-2.4,0.6l-3.8-0.8L923.7,311.6z M916.6,315.6l3.9,0.9l1.9,1.8
			l2.4-0.8l3.2,0.7l-6.3,2L916.6,315.6z M929.1,328.9l-6.5,2.2l2.6-2.9l2.6-0.8l0.5-2.6l2.2-2.5L929.1,328.9z M932.1,329.7l1.4-6.4
			l1.1,3.4l-0.4,2.1l1.6,1.7l1.2,3.8L932.1,329.7z M944.4,354l-2.1-2.8l0.1-3.4l2.2,2.7L944.4,354z M939.1,333.7l-1.2-3.8l0.6-2.6
			l-2-1.7l-1-3.2l4.9,4.5L939.1,333.7z M942.5,324.7l-4.8-4.4l3.4,0.8l1.7,1.5l2.4-0.6l3.8,0.8L942.5,324.7z"/>
	</g>
</g>
<g id="Layer_2_00000058550384690544635560000011148821014459423164_">
	<g id="Layer_1-2_00000092433184194869047770000017707604914731644574_">
		<path class="st0" d="M673,568.4h-23.5l14.4-7.7l-1.4-2.6l-1.4-2.6l0,0l-0.1,0.1l-24.2,13h-15.2l22.8-16.2l-3.5-5l-29.6,21.1h-8.7
			l5.6-9.1l10.9-0.4l-0.2-4.6l-7.8,0.3l3.5-5.7c3.6,2.8,8.7,2.1,11.5-1.5c1.4-1.8,1.9-4,1.6-6.2l12.3-2.3l13.3-15.5l-20.5,3
			l-7.7,9.9c-3.3-3.1-8.5-2.8-11.6,0.5c-1.7,1.9-2.4,4.4-2,6.9l-6.6,0.2l4.2-6.6l-3.9-2.5l-5.8,9.2l-10.7,0.3l4.3-7.5l33.1-15.1
			l-2.5-5.4l-25.4,11.6l7.6-13.1l23.4-14.6l0,0l-1.6-2.5l-1.6-2.6l-13.9,8.6l11.8-20.4l-6-3.5L606.1,500l0.5-16.2v-0.1l0,0l-3-0.1
			l-3-0.1l-0.9,27.6l-7.6,13.1l-2.7-27.8l-6,0.6l3.5,36.2l-4.2,7.3l-5.2-9.3l5-9.5l-4.1-2.1l-3.6,6.8l-3.3-5.9
			c4.2-1.7,6.2-6.5,4.6-10.7c-0.8-2.1-2.5-3.7-4.6-4.6l4.1-11.7l-6.7-19.3l-7.7,19.3l4.6,11.5c-4.3,1.4-6.7,6-5.3,10.3
			c0.8,2.4,2.6,4.3,5,5.2l-3.2,5.9l-3.6-6.9l-4.1,2.1l5.1,9.6l-5.1,9.4l-4.4-7.5l3.5-36.2l-6-0.6l-2.6,27.8l-7.6-13.1l-0.9-27.6
			l-3,0.1l-3,0.1l0,0v0.1l0.6,16.2l-11.8-20.4l-6,3.5l11.8,20.4l-13.9-8.6l0,0l-1.6,2.5l-1.6,2.5l23.5,14.6l7.6,13.1l-25.4-11.6
			l-2.5,5.5l33.1,15.1l4.3,7.5l-10.7-0.3l-5.8-9.2l-3.9,2.5l4.2,6.6l-6.8-0.2c0.7-4.5-2.3-8.7-6.8-9.4c-2.3-0.4-4.6,0.2-6.5,1.7
			l-8-9.4l-20-3.8l12.9,16.3l12.2,1.7c-0.9,4.4,2,8.7,6.5,9.6c2.4,0.5,4.9-0.2,6.8-1.7l3.5,5.8l-7.7-0.3l-0.2,4.6l10.7,0.4l5.5,9.2
			H526l-29.6-21.1l-3.5,4.9l22.8,16.2h-15.1l-24.3-13l0,0l-1.4,2.7l-1.5,2.6l14.4,7.7h-23.5v6.9h23.5l-14.4,7.8l1.4,2.6l1.5,2.6l0,0
			l24.3-13h15.1l-22.8,16.2l3.5,4.9l29.6-21.1h8.7l-5.6,9.2l-10.9,0.5l0.2,4.6l7.8-0.3l-3.5,5.7c-3.5-2.9-8.7-2.4-11.5,1.1
			c-1.5,1.8-2.2,4.3-1.8,6.6l-12.1,2.2l-13.3,15.5l20.5-3l7.7-9.9c3.4,2.9,8.6,2.5,11.5-0.9c1.5-1.8,2.2-4.1,1.9-6.5l6.8-0.2
			l-4.2,6.6l3.9,2.5l5.8-9.2l10.7-0.3l-4.3,7.5l-33.1,15.1l2.5,5.5l25.4-11.6l-7.6,13.1l-23.3,14.5l-0.1,0.1l0,0l1.6,2.6l1.6,2.5
			l13.9-8.6l-11.8,20.4l6,3.5l11.8-20.4l-0.5,16.3l3,0.1l3,0.1l0,0l0.9-27.6l7.6-13.1l2.6,27.8l6-0.6l-3.5-36.2l4.2-7.3l5.2,9.3
			l-5,9.5l4.1,2.1l3.6-6.8l3.2,5.7c-4.2,1.6-6.4,6.3-4.8,10.5c0.8,2.3,2.6,4,4.9,4.8l-4.2,11.7l6.7,19.3l7.6-19.3l-4.7-11.8
			c4.3-1.5,6.5-6.2,5-10.4c-0.8-2.2-2.5-4-4.6-4.9l3.2-5.8l3.6,6.9l4.1-2.1l-5-9.6l5.2-9.4l4.3,7.4l-3.4,36.2l6,0.6l2.6-27.8
			l7.6,13.1l0.9,27.6l3-0.1l3-0.1l0,0l-0.5-16.3l11.8,20.4l6-3.5L612,640.1l13.8,8.5l0.1,0.1l0,0l1.6-2.5l1.6-2.6l-23.4-14.6
			l-7.6-13.1l25.4,11.6l2.5-5.5l-33-15.1l-4.3-7.5l10.7,0.2l5.8,9.2l3.9-2.5l-4.2-6.6l6.5,0.2c-0.6,4.5,2.5,8.6,7,9.3
			c2.3,0.3,4.6-0.3,6.4-1.8l8.2,9.6l20.1,3.8L640,604.6l-12.5-1.8c0.9-4.4-1.9-8.8-6.4-9.7c-2.4-0.5-4.8,0.1-6.7,1.6l-3.3-5.6
			l7.7,0.3l0.2-4.6l-10.7-0.4l-5.5-9.2h8.4l29.6,21.1l3.5-4.9l-22.8-16.2h15.2l24.3,13l1.4-2.6l1.4-2.6l0,0h-0.1l-14.3-7.7H673
			V568.4z M635,530.2l7.9-1.2l-5.1,5.9l-7.5,1.4L635,530.2z M499.4,535.1l-4.9-6.2l7.7,1.5l5,5.9L499.4,535.1z M502.2,613.4
			l-7.9,1.2l5.1-5.9l7.6-1.4L502.2,613.4z M637.8,608.5l4.9,6.2l-7.7-1.5l-5-5.9L637.8,608.5z M594.7,584l-2.8-5.1l-5.7,0.2
			l-6.5-3.8h15.1l7.9,13.3L594.7,584z M550.4,579.2h-4.8l-2.9,4.4l-7.7,4.5l7.9-12.9h14.4L550.4,579.2z M594.4,568.3h-15l6.9-4h5.3
			l3.3-5l7.7-4.4L594.4,568.3z M584.5,551.2l15.1-0.4l-7.7,4.4l-5.5-0.1l-2.6,4.8l-6.5,3.8L584.5,551.2z M578.7,547.5l-7.7,13.3
			v-7.9l2.7-4.7l-2.7-5.3v-9.1L578.7,547.5z M568.7,486.2l2.6,7.4l-2.6,7.3l-2.9-7.3L568.7,486.2z M565.9,534.5v8.8l-2.9,4.8
			l2.9,4.6v7.5l-7.2-12.5L565.9,534.5z M552.7,551.2l7.3,12.7l-6.9-4l-2.6-4.4l-5.6-0.4l-7.7-4.4L552.7,551.2z M534.5,555.1l7.9,4.6
			l2.8,5.1l5.7-0.2l6.5,3.8h-15.1L534.5,555.1z M552.7,592.4l-15.7,0.4l7.7-4.5l6.1,0.1l2.8-5.2l6.6-3.8L552.7,592.4z M558.5,596.2
			l7.4-12.8v8l-2.4,4.2l2.4,4.8v9.2L558.5,596.2z M568.5,657.5l-2.6-7.4l2.6-7.3l2.9,7.3L568.5,657.5z M571,609.8v-9l3.1-5.2
			l-3.1-5.1v-7.6l7.6,13.1L571,609.8z M584.5,592.5l-7.4-12.8l6.9,4l2.6,4.4l5.6,0.3l7.7,4.5L584.5,592.5z"/>
	</g>
</g>
<g id="Layer_2_00000028301466793919254450000008459216223273226657_">
	<g id="Layer_1-2_00000004529038079766200650000013511186441245448891_">
		<path class="st0" d="M1382,61.4h-23.5l14.4-7.7l-1.4-2.6l-1.4-2.7l0,0l-0.1,0.1l-24.2,13h-15.2l22.8-16.2l-3.5-5l-29.6,21.1h-8.7
			l5.6-9.2l10.9-0.4l-0.2-4.6l-7.8,0.3l3.5-5.7c3.6,2.8,8.7,2.1,11.5-1.5c1.4-1.8,1.9-4,1.6-6.2l12.3-2.3l13.3-15.5l-20.5,3
			l-7.7,9.9c-3.3-3.1-8.5-2.8-11.6,0.5c-1.7,1.9-2.4,4.4-2,6.9l-6.5,0.2l4.2-6.6l-3.9-2.5l-5.8,9.2l-10.7,0.3l4.3-7.5l33.1-15.1
			l-2.5-5.5l-25.4,11.6l7.6-13.1L1338.1-7l0,0l-1.6-2.5l-1.6-2.5L1321-3.5l11.8-20.4l-6-3.5L1315.1-7l0.5-16.2v-0.1l0,0l-3-0.1
			l-3-0.1l-0.9,27.6l-7.6,13.1l-2.7-27.8l-6,0.6l3.4,36.2l-4.2,7.3l-5.2-9.3l5-9.5l-4.1-2.1l-3.6,6.8l-3.3-5.9
			c4.2-1.7,6.2-6.5,4.6-10.7c-0.8-2.1-2.5-3.7-4.6-4.6l4.2-11.7l-6.7-19.3l-7.7,19.3l4.6,11.5c-4.3,1.4-6.7,6-5.3,10.3
			c0.8,2.4,2.6,4.3,5,5.2l-3.2,5.9l-3.6-6.9l-4.1,2.1l5.1,9.6l-5.1,9.4l-4.3-7.5l3.4-36.2l-6-0.6l-2.6,27.8l-7.6-13.1l-0.9-27.6
			l-3,0.1l-3,0.1l0,0v0.1l0.6,16.2l-11.8-20.4l-6,3.5l11.8,20.4l-13.9-8.6l0,0l-1.6,2.5l-1.6,2.5l23.4,14.6l7.6,13.1l-25.4-11.6
			l-2.5,5.5l33.1,15.1l4.3,7.5l-10.7-0.3l-5.8-9.2l-3.9,2.5l4.2,6.6l-6.8-0.2c0.7-4.5-2.3-8.7-6.8-9.4c-2.3-0.4-4.6,0.2-6.5,1.7
			l-8-9.3l-20.1-3.8l12.9,16.3l12.2,1.7c-0.9,4.4,2,8.7,6.5,9.6c2.4,0.5,4.9-0.2,6.8-1.7l3.5,5.8l-7.7-0.3l-0.2,4.6l10.7,0.4
			l5.5,9.2h-8.4l-29.6-21.1l-3.5,4.9l22.8,16.2h-15.2l-24.3-13l0,0l-1.4,2.7l-1.5,2.6l14.4,7.7h-23.5v6.9h23.5l-14.4,7.8l1.4,2.6
			l1.5,2.7l0,0l24.3-13.1h15.2l-22.8,16.2l3.5,4.9l29.6-21.1h8.7l-5.6,9.2l-10.9,0.5l0.2,4.6l7.8-0.3l-3.5,5.7
			c-3.5-2.9-8.7-2.4-11.5,1.1c-1.5,1.8-2.2,4.3-1.8,6.6l-12.1,2.2l-13.3,15.5l20.5-3l7.7-9.9c3.4,2.9,8.6,2.5,11.5-0.9
			c1.5-1.8,2.2-4.1,1.9-6.5l6.8-0.2l-4.2,6.6l3.9,2.5l5.8-9.2l10.7-0.3l-4.3,7.5l-33.1,15.1l2.5,5.4l25.4-11.6l-7.6,13.1l-23.3,14.5
			l-0.1,0.1l0,0l1.6,2.6l1.6,2.6l13.9-8.7l-11.8,20.4l6,3.5l11.8-20.4l-0.5,16.3l3,0.1l3,0.1l0,0l0.9-27.6l7.6-13.1l2.6,27.8l6-0.6
			l-3.4-36.2l4.2-7.3l5.2,9.3l-5,9.5l4.1,2.1l3.6-6.8l3.2,5.7c-4.2,1.6-6.4,6.3-4.8,10.5c0.8,2.3,2.6,4,4.9,4.8l-4.2,11.7l6.7,19.3
			l7.7-19.3l-4.7-11.8c4.3-1.5,6.5-6.2,5-10.4c-0.8-2.2-2.5-4-4.6-4.9l3.2-5.8l3.6,6.9l4.1-2.1l-5-9.6l5.2-9.4l4.3,7.4l-3.5,36.2
			l6,0.6l2.7-27.8l7.6,13.1l0.9,27.6l3-0.1l3-0.1l0,0l-0.5-16.3l11.8,20.4l6-3.5l-11.9-20.4l13.8,8.5l0.1,0.1l0,0l1.6-2.6l1.6-2.6
			l-23.5-14.6l-7.6-13.1l25.4,11.6l2.5-5.4l-33.1-15.1l-4.3-7.5l10.7,0.2l5.8,9.2l3.9-2.5l-4.2-6.6l6.5,0.2c-0.6,4.5,2.5,8.6,7,9.3
			c2.3,0.3,4.6-0.3,6.4-1.8l8.2,9.6l20.1,3.8L1349,97.6l-12.5-1.8c0.9-4.4-1.9-8.8-6.4-9.7c-2.4-0.5-4.8,0.1-6.7,1.6l-3.3-5.6
			l7.7,0.3l0.2-4.6l-10.7-0.4l-5.5-9.2h8.4l29.6,21.1l3.5-4.9l-22.8-16.2h15.2l24.3,13l1.4-2.7l1.4-2.6l0,0h-0.1l-14.3-7.7h23.5
			V61.4z M1344,23.2l7.9-1.2l-5.1,5.9l-7.5,1.4L1344,23.2z M1208.4,28.1l-4.9-6.2l7.7,1.5l5,5.9L1208.4,28.1z M1211.2,106.4
			l-7.9,1.2l5.1-5.9l7.6-1.4L1211.2,106.4z M1346.8,101.5l4.9,6.2l-7.7-1.5l-5-5.9L1346.8,101.5z M1303.7,77l-2.8-5.1l-5.7,0.2
			l-6.5-3.8h15.1l7.9,13.3L1303.7,77z M1259.4,72.2h-4.8l-2.9,4.4l-7.7,4.4l7.9-12.9h14.4L1259.4,72.2z M1303.4,61.3h-15l6.9-4h5.4
			l3.3-5l7.7-4.4L1303.4,61.3z M1293.5,44.2l15.1-0.4l-7.7,4.4l-5.6-0.1l-2.6,4.8l-6.5,3.8L1293.5,44.2z M1287.7,40.5l-7.7,13.3
			v-7.9l2.7-4.7l-2.7-5.3v-9.1L1287.7,40.5z M1277.7-20.8l2.6,7.4l-2.6,7.3l-2.9-7.3L1277.7-20.8z M1274.9,27.5v8.8l-2.9,4.8
			l2.9,4.6v7.5l-7.2-12.5L1274.9,27.5z M1261.7,44.2l7.3,12.7l-6.9-4l-2.6-4.4l-5.6-0.4l-7.7-4.4L1261.7,44.2z M1243.5,48.1l7.9,4.6
			l2.8,5.1l5.7-0.2l6.5,3.8h-15.1L1243.5,48.1z M1261.7,85.4l-15.7,0.4l7.7-4.4l6.1,0.1l2.8-5.2l6.6-3.8L1261.7,85.4z M1267.5,89.2
			l7.4-12.8v8l-2.4,4.2l2.4,4.8v9.2L1267.5,89.2z M1277.5,150.5l-2.6-7.4l2.6-7.3l2.9,7.3L1277.5,150.5z M1280,102.8v-9l3.1-5.2
			l-3.1-5.1v-7.6l7.6,13.1L1280,102.8z M1293.5,85.5l-7.4-12.8l6.9,4l2.6,4.4l5.6,0.3l7.7,4.5L1293.5,85.5z"/>
	</g>
</g>
<g id="Layer_2_00000112631133090130271840000017037426847632048062_">
	<g id="Layer_1-2_00000092416468016483709510000017295235715317472129_">
		<path class="st0" d="M469,276.5l-29.3-8.9l20.9-4.2l-0.8-3.8l-0.8-3.8l0,0l-0.2,0l-35.2,7l-18.9-5.7l34.6-11.6l-2.5-7.5l-45,15.1
			l-10.9-3.3l10.5-9.3l13.7,3.6l1.5-5.8l-9.9-2.6l6.5-5.8c3.4,4.8,10.1,5.9,14.9,2.5c2.4-1.7,3.9-4.3,4.4-7.1l16.3,1.8l22.5-14.3
			l-26.8-4l-13.4,9.4c-3-5.1-9.6-6.8-14.7-3.8c-2.8,1.7-4.7,4.5-5.2,7.8l-8.2-2.3l7.7-6.7l-3.9-4.5l-10.8,9.3l-13.5-3.7l8.3-7.8
			l47-6.3l-1-7.7l-36.1,4.9l14.4-13.5l34.8-9.3l0,0l-1-3.8l-1-3.8l-20.6,5.5l22.4-21l-6.2-6.6l-22.4,21l6.8-20.1l0-0.1l0,0l-3.7-1.2
			l-3.7-1.3l-11.6,34.1l-14.4,13.5l7.2-35.7l-7.7-1.6l-9.4,46.5l-8,7.5l-3-13.6l9.8-10l-4.3-4.2l-7.1,7.2l-1.9-8.6
			c5.9-0.5,10.2-5.7,9.7-11.6c-0.3-2.9-1.7-5.6-4-7.4l9.6-13l-1.1-26.7l-16.9,21.2l1.4,16.1c-5.9,0.1-10.6,5-10.5,10.9
			c0.1,3.3,1.6,6.4,4.3,8.3l-6.2,6.1l-1.9-10l-5.9,1.1l2.7,14l-10,9.8l-2.6-11.1l18-43.9l-7.3-3L326.1,173l-4.5-19.3l9.3-34.8
			l-3.8-1l-3.8-1l0,0l0,0.1l-5.4,20.5l-7-29.9l-8.8,2l7,29.9l-14.1-16l0,0l-2.9,2.6l-2.9,2.6l23.7,27.1l4.5,19.2L290,150.9l-5.2,5.8
			l35.6,31.4l2.6,11.1l-13.3-4.4l-3.8-13.7l-5.8,1.6l2.7,9.8l-8.4-2.8c2.6-5.3,0.4-11.7-4.9-14.3c-2.7-1.3-5.9-1.5-8.7-0.3
			l-6.4-14.7L250.7,148l10,25.2l14.6,6.8c-2.8,5.2-0.8,11.7,4.5,14.5c2.8,1.5,6.1,1.6,9.1,0.4l2.1,8.6l-9.5-3.3l-2,5.7l13.2,4.6
			l3.3,13.5l-10.4-3.2l-29-37.6l-6.2,4.8l22.3,28.9l-18.9-5.7l-25.4-25.4l0,0l-2.8,2.8l-2.8,2.7l15,15.1l-29.3-8.9l-2.6,8.6
			l29.3,8.9l-20.9,4.2l0.8,3.8l0.8,3.9l0,0l35.3-7.1l18.9,5.7l-34.6,11.6l2.5,7.4l45-15.1l10.9,3.3l-10.5,9.3l-13.8-3.5l-1.5,5.8
			l9.9,2.6l-6.5,5.8c-3.3-4.9-9.9-6.3-14.8-3c-2.6,1.7-4.3,4.5-4.7,7.6l-16-1.8l-22.5,14.3l26.8,4l13.4-9.4c3.2,5,9.8,6.4,14.8,3.2
			c2.6-1.7,4.3-4.3,4.8-7.4l8.6,2.4l-7.8,6.6l3.9,4.5l10.8-9.3l13.5,3.7l-8.3,7.8l-47.1,6.3l1,7.7l36.1-4.9l-14.4,13.5l-34.6,9.3
			l-0.1,0l0,0l1,3.8l1,3.8l20.7-5.5L234.8,331l6.2,6.6l22.4-20.9l-6.8,20.2l3.7,1.2l3.7,1.3l0,0l11.6-34.1l14.4-13.5l-7.3,35.7
			l7.7,1.6l9.4-46.5l8-7.5l3,13.6l-9.8,10l4.3,4.2l7.1-7.2l1.8,8.3c-5.9,0.4-10.4,5.5-10,11.4c0.2,3.1,1.8,6,4.3,7.9l-9.7,13.1
			l1.1,26.6l16.9-21.2l-1.4-16.5c5.9-0.2,10.5-5.2,10.2-11.1c-0.1-3-1.6-5.9-3.9-7.8l6.2-6l1.9,10l5.9-1.1l-2.6-13.9l10-9.8
			l2.5,10.9l-18,43.9l7.3,3l13.8-33.7l4.5,19.2l-9.3,34.8l3.8,1l3.8,1l0,0l5.6-20.6l7,29.9l8.8-2l-7.1-29.9l14,15.9l0.1,0.1l0,0
			l2.9-2.6l2.9-2.6l-23.7-27.1l-4.5-19.2l27.3,24.1l5.2-5.9l-35.5-31.4l-2.6-11l13.3,4.4l3.8,13.6l5.8-1.6L372,290l8.1,2.7
			c-2.5,5.4-0.2,11.7,5.2,14.2c2.7,1.3,5.9,1.3,8.6,0.2l6.6,15.1l23.6,12.4l-9.9-25.2l-15-7c2.8-5.2,0.9-11.7-4.3-14.5
			c-2.8-1.5-6.1-1.7-9-0.6l-2-8.2l9.5,3.3l2-5.7l-13.2-4.6l-3.3-13.6l10.5,3.2l29,37.5l6.2-4.8l-22.3-28.8l18.9,5.7l25.5,25.5
			l2.8-2.8l2.8-2.8l0,0l-0.1,0l-14.9-15l29.3,8.9L469,276.5z M436,214.5l10.3,1.5l-8.6,5.5l-9.9-1.1L436,214.5z M264.8,169.2
			l-3.8-9.7l9.1,4.7l4,9.2L264.8,169.2z M238.7,268l-10.3-1.5l8.6-5.5l10,1.1L238.7,268z M409.8,313.3l3.8,9.7l-9.1-4.7l-4-9.2
			L409.8,313.3z M365.4,266.3l-1.6-7.4l-7.2-1.9l-6.7-7.2l18.8,5.7l4.8,19.6L365.4,266.3z M311.8,243.6l-6-1.8l-5.3,4.4l-11.3,2.6
			l14.7-13.1l18,5.5L311.8,243.6z M370.8,246.7l-18.7-5.7l10.1-2.4l6.7,2l6-5l11.2-2.6L370.8,246.7z M365,221.6l19,5.2l-11.2,2.6
			l-6.9-2.2l-5,5l-9.6,2.2L365,221.6z M359.2,214.7l-14.6,13.7l3-9.9l5.1-4.8l-1.3-7.6l3.5-11.4L359.2,214.7z M369.9,134.4l0.4,10.2
			l-6,8.1l-0.9-10.2L369.9,134.4z M348.1,193.7l-3.4,11l-5.4,4.9l1.8,6.9l-2.8,9.4l-4.3-18.3L348.1,193.7z M325.3,209.5l4.3,18.7
			l-7.1-7.6l-1.5-6.4l-6.9-2.6l-7.9-8.4L325.3,209.5z M301.2,207.4l8.2,8.7l1.6,7.4l7.2,1.9l6.7,7.2L306,227L301.2,207.4z
			 M309.7,261l-19.7-5.4l11.3-2.6l7.6,2.4l5.5-5.5l9.6-2.3L309.7,261z M315.5,267.9l14.1-13.2l-3,10L322,269l1.2,6.8l-3.5,11.5
			L315.5,267.9z M304.8,348.2l-0.4-10.2l6-8.1l0.9,10.2L304.8,348.2z M326,289.5l3.4-11.2l5.9-5.3l-2-7.5l2.9-9.5l4.5,19.2
			L326,289.5z M349.4,273.1l-4.4-18.8l7.1,7.6l1.5,6.4l6.9,2.6l8,8.5L349.4,273.1z"/>
	</g>
</g>
</svg>
